<svg xmlns="http://www.w3.org/2000/svg" viewBox="0 0 100 100">
  <defs>
    <linearGradient id="grad1" x1="100%" y1="50%" x2="0%" y2="50%">
      <stop offset="0%" stop-color="#ff0000"/>
      <stop offset="100%" stop-color="#ff8282"/>
    </linearGradient>
  </defs>
  <!-- Gray P tail -->
  <path d="M60.6,100c21.8,0,39.5-17.7,39.5-39.5V39.5c0,21.8-17.7,39.5-39.5,39.5h-5.5c-2.4,0-4.3,1.9-4.3,4.3v12.4c0,2.4,1.9,4.3,4.3,4.3h5.5Z" fill="#cfcfcf"/>
  <!-- Red P head -->
  <path d="M4.3,79C1.9,79,0,77.1,0,74.7V4.3C0,1.9,1.9,0,4.3,0h56.3c21.8,0,39.5,17.7,39.5,39.5s-17.7,39.5-39.5,39.5h-5.5c-2.4,0-4.3,1.9-4.3,4.3v-4.3H4.3Z" fill="url(#grad1)"/>
</svg>















