<?xml version="1.0" encoding="UTF-8"?>
<svg id="pp-logo" xmlns="http://www.w3.org/2000/svg" xmlns:xlink="http://www.w3.org/1999/xlink" version="1.1" viewBox="0 0 1012.58 187.89">
  <!-- Generator: Adobe Illustrator 29.5.1, SVG Export Plug-In . SVG Version: 2.1.0 Build 141)  -->
  <defs>
    <style>
      .st0 {
        fill: url(#_新規グラデーションスウォッチ_7);
      }

      .st1 {
        fill: #c8c8c8;
      }
    </style>
    <linearGradient id="_新規グラデーションスウォッチ_7" data-name="新規グラデーションスウォッチ 7" x1="138.98" y1="74.37" x2="0" y2="74.37" gradientUnits="userSpaceOnUse">
      <stop offset="0" stop-color="red"/>
      <stop offset="1" stop-color="#ff8282"/>
    </linearGradient>
  </defs>
  <g id="pp-logo-image">
    <g id="pp-logo-elm">
      <path id="pp-logo-elm-path-02" class="st1" d="M84.2,187.89c30.25,0,54.78-24.53,54.78-54.78V54.78c0,30.25-24.53,54.78-54.78,54.78h-7.69c-3.29,0-5.97,2.67-5.97,5.96v66.39c0,3.29,2.67,5.97,5.97,5.97h7.69Z"/>
      <path id="pp-logo-elm-path-01" class="st0" d="M5.97,148.73c-3.29,0-5.97-2.67-5.97-5.97V5.97C0,2.67,2.67,0,5.97,0h78.24c30.25,0,54.78,24.53,54.78,54.78s-24.53,54.78-54.78,54.78h-7.69c-3.29,0-5.97,2.67-5.97,5.96v33.21H5.97Z"/>
    </g>
    <g id="pp-logo-typography">
      <path id="pp-logo-typography-11" d="M975.38,49.73c-10.58,0-19.99,4.77-25.15,12.44v-10.61h-18.16v109.24h18.62v-38.62c5.04,7.62,14.26,12.34,24.69,12.34,21.21,0,37.2-18.23,37.2-42.39s-15.99-42.39-37.2-42.39ZM972.63,118.35c-12.51,0-21.94-11.27-21.94-26.22s9.43-26.22,21.94-26.22c13.75,0,21.18,13.51,21.18,26.22s-7.42,26.22-21.18,26.22Z"/>
      <path id="pp-logo-typography-10" d="M885.15,49.73c-23.04,0-40.41,18.23-40.41,42.39s17.37,42.39,40.41,42.39,40.41-18.23,40.41-42.39-17.37-42.39-40.41-42.39ZM885.15,118.35c-14.15,0-21.79-13.51-21.79-26.22s7.64-26.37,21.79-26.37,21.79,13.59,21.79,26.37-7.64,26.22-21.79,26.22Z"/>
      <path id="pp-logo-typography-09" d="M845.03,51.57h-3.62c-12.34,0-20.62,4.39-25.16,13.39v-13.39h-17.85v81.12h18.62v-37.5c0-14.49,3.01-27.9,24.88-27.9h3.14v-15.72Z"/>
      <path id="pp-logo-typography-08" d="M754.05,23.45h-43.4v109.24h19.08v-38.5c0-2.29,1.85-4.14,4.14-4.14h20.18c22.44,0,38.12-13.73,38.12-33.38s-15.67-33.22-38.12-33.22ZM752.37,73.72h-18.5c-2.29,0-4.14-1.85-4.14-4.14v-25.52c0-2.29,1.85-4.14,4.14-4.14h18.5c12.59,0,20.72,6.51,20.72,16.59s-8.13,17.2-20.72,17.2Z"/>
      <path id="pp-logo-typography-07" d="M673.08,64.96v-13.39h-17.85v81.12h18.62v-37.5c0-14.49,3.01-27.9,24.88-27.9h3.14v-15.72h-3.62c-12.34,0-20.62,4.39-25.16,13.39Z"/>
      <path id="pp-logo-typography-06" d="M608.54,49.73c-22.34,0-39.19,18.23-39.19,42.39,0,25.36,16.05,42.39,39.95,42.39,17.63,0,31.74-10.23,35.94-26.06l.38-1.42h-17.51l-.29.7c-3.2,7.75-9.43,11.68-18.51,11.68-12.09,0-20.51-8.78-21.71-22.49h58.9v-6.33c0-24.83-14.9-40.87-37.96-40.87ZM588.2,82.59c1.85-9.19,8.02-18.52,20.19-18.52,10.81,0,18.48,7.06,20.25,18.52h-40.45Z"/>
      <path id="pp-logo-typography-05" d="M531.99,49.73c-10.17,0-18.01,3.85-22.55,10.94v-9.11h-18.01v81.12h18.62v-46.83c0-12.03,6.77-19.5,17.66-19.5,13.37,0,15.37,12.02,15.37,19.19v47.13h18.62v-49.27c0-21.09-11.11-33.68-29.71-33.68Z"/>
      <path id="pp-logo-typography-04" d="M471.69,117.43c-7.15,0-10.63-3.63-10.63-11.09v-39.06h21.09v-15.72h-21.09v-20.94h-18.62v20.94h-13.91v15.72h13.91v39.06c0,17.84,8.74,27.27,25.28,27.27,5.99,0,11.19-.72,13.91-1.93l.67-.3v-15.66l-1.43.38c-2.15.57-5.45,1.34-9.18,1.34Z"/>
      <path id="pp-logo-typography-03" d="M391.53,64.95v-13.39h-17.85v81.12h18.62v-37.5c0-14.49,3.01-27.9,24.88-27.9h3.14v-15.72h-3.62c-12.34,0-20.62,4.39-25.16,13.39Z"/>
      <path id="pp-logo-typography-02" d="M345.38,62.18c-5.17-7.68-14.58-12.44-25.15-12.44-21.21,0-37.2,18.23-37.2,42.39s15.99,42.39,37.2,42.39c10.43,0,19.65-4.72,24.69-12.34v10.5h18.62V51.57h-18.16v10.61ZM322.98,118.35c-13.75,0-21.18-13.51-21.18-26.22s7.42-26.22,21.18-26.22c12.51,0,21.94,11.27,21.94,26.22s-9.43,26.22-21.94,26.22Z"/>
      <path id="pp-logo-typography-01" d="M244.92,23.45h-43.4v109.24h19.08v-38.5c0-2.29,1.85-4.14,4.14-4.14h20.18c22.44,0,38.12-13.73,38.12-33.38s-15.67-33.22-38.12-33.22ZM243.23,73.72h-18.5c-2.29,0-4.14-1.85-4.14-4.14v-25.52c0-2.29,1.85-4.14,4.14-4.14h18.5c12.59,0,20.72,6.51,20.72,16.59s-8.13,17.2-20.72,17.2Z"/>
    </g>
  </g>
</svg>