<svg width="314" height="59" viewBox="0 0 314 59" fill="none" xmlns="http://www.w3.org/2000/svg">
<path d="M123.159 20.9156V16.8105H117.688V41.6773H123.395V30.1832C123.395 25.7431 124.321 21.6315 131.021 21.6315H131.98V16.8171H130.87C127.086 16.8171 124.545 18.1636 123.159 20.9222V20.9156Z" fill="white"/>
<path d="M209.307 20.9156V16.8105H203.836V41.6773H209.544V30.1832C209.544 25.7431 210.47 21.6315 217.169 21.6315H218.128V16.8171H217.018C213.235 16.8171 210.7 18.1636 209.307 20.9222V20.9156Z" fill="white"/>
<path d="M262.212 16.8105H261.102C257.319 16.8105 254.777 18.157 253.391 20.9156V16.8105H247.92V41.6773H253.628V30.1832C253.628 25.7431 254.554 21.6315 261.253 21.6315H262.212V16.8171V16.8105Z" fill="white"/>
<path d="M147.738 36.9998C145.544 36.9998 144.48 35.8898 144.48 33.5976V21.624H150.943V16.8096H144.48V10.3926H138.772V16.8096H134.51V21.624H138.772V33.5976C138.772 39.0622 141.452 41.9587 146.523 41.9587C148.355 41.9587 149.951 41.7354 150.785 41.3676L150.989 41.2757V36.4744L150.549 36.5926C149.886 36.77 148.881 36.9998 147.731 36.9998H147.738Z" fill="white"/>
<path d="M166.219 16.2451C163.105 16.2451 160.701 17.4274 159.302 19.6014V16.81H153.785V41.6767H159.493V27.3255C159.493 23.6408 161.568 21.3485 164.905 21.3485C169.003 21.3485 169.614 25.0332 169.614 27.2335V41.6833H175.322V26.5767C175.322 20.1137 171.92 16.2517 166.212 16.2517L166.219 16.2451Z" fill="white"/>
<path d="M189.691 16.2451C182.84 16.2451 177.678 21.8345 177.678 29.2433C177.678 37.0134 182.597 42.2416 189.921 42.2416C195.326 42.2416 199.648 39.1086 200.935 34.2548L201.054 33.8213H195.687L195.595 34.038C194.617 36.4157 192.706 37.6176 189.921 37.6176C186.216 37.6176 183.635 34.9247 183.267 30.7212H201.323V28.7836C201.323 21.1712 196.758 16.2583 189.684 16.2583L189.691 16.2451ZM183.451 26.314C184.023 23.4963 185.908 20.6392 189.638 20.6392C192.955 20.6392 195.306 22.8001 195.845 26.314H183.445H183.451Z" fill="white"/>
<path d="M274.477 16.2451C267.417 16.2451 262.09 21.8345 262.09 29.2433C262.09 36.6521 267.417 42.2416 274.477 42.2416C281.538 42.2416 286.865 36.6521 286.865 29.2433C286.865 21.8345 281.538 16.2451 274.477 16.2451ZM274.477 37.2761C270.142 37.2761 267.798 33.1316 267.798 29.2368C267.798 25.3419 270.136 21.1515 274.477 21.1515C278.819 21.1515 281.157 25.3156 281.157 29.2368C281.157 33.1579 278.819 37.2761 274.477 37.2761Z" fill="white"/>
<path d="M302.136 16.2451C298.892 16.2451 296.008 17.7032 294.425 20.0612V16.81H288.855V50.294H294.563V38.4583C296.107 40.79 298.937 42.2416 302.13 42.2416C308.632 42.2416 313.532 36.6521 313.532 29.2433C313.532 21.8346 308.632 16.2451 302.13 16.2451H302.136ZM301.295 37.2761C297.46 37.2761 294.57 33.8213 294.57 29.2368C294.57 24.6523 297.46 21.1974 301.295 21.1974C305.512 21.1974 307.785 25.3419 307.785 29.2368C307.785 33.1316 305.512 37.2761 301.295 37.2761Z" fill="white"/>
<path d="M108.902 20.0612C107.319 17.7098 104.436 16.2451 101.191 16.2451C94.6889 16.2451 89.7891 21.8345 89.7891 29.2433C89.7891 36.6521 94.6889 42.2416 101.191 42.2416C104.39 42.2416 107.214 40.7966 108.758 38.4583V41.6767H114.465V16.81H108.896V20.0612H108.902ZM102.032 37.2761C97.8153 37.2761 95.5427 33.1316 95.5427 29.2368C95.5427 25.3419 97.8153 21.1974 102.032 21.1974C105.868 21.1974 108.758 24.6523 108.758 29.2368C108.758 33.8213 105.868 37.2761 102.032 37.2761Z" fill="white"/>
<path d="M78.2223 8.18626H64.9219V41.6703H70.7675V29.8675C70.7675 29.1647 71.3323 28.5998 72.0351 28.5998H78.2223C85.099 28.5998 89.9069 24.3897 89.9069 18.3668C89.9069 12.3438 85.1056 8.17969 78.2223 8.17969V8.18626ZM77.7099 23.595H72.0417C71.3389 23.595 70.774 23.0301 70.774 22.3273V14.5047C70.774 13.802 71.3389 13.2371 72.0417 13.2371H77.7099C81.5654 13.2371 84.0613 15.2338 84.0613 18.3208C84.0613 21.4078 81.572 23.595 77.7099 23.595Z" fill="white"/>
<path d="M234.127 8.18626H220.826V41.6703H226.672V29.8675C226.672 29.1647 227.243 28.5998 227.939 28.5998H234.127C241.003 28.5998 245.811 24.3897 245.811 18.3668C245.811 12.3438 241.01 8.17969 234.127 8.17969V8.18626ZM233.614 23.595H227.946C227.243 23.595 226.678 23.0301 226.678 22.3273V14.5047C226.678 13.802 227.25 13.2371 227.946 13.2371H233.614C237.47 13.2371 239.966 15.2338 239.966 18.3208C239.966 21.4078 237.476 23.595 233.614 23.595Z" fill="white"/>
<path d="M26.8108 58.5958C36.085 58.5958 43.6054 51.0754 43.6054 41.8012V17.7949C43.6054 27.069 36.085 34.5895 26.8108 34.5895H24.4529C23.4414 34.5895 22.627 35.4105 22.627 36.4154V56.7699C22.627 57.7814 23.448 58.5958 24.4529 58.5958H26.8108Z" fill="#C8C8C8"/>
<path d="M2.82593 46.589C1.81444 46.589 1 45.768 1 44.7631V2.82592C1 1.82101 1.82101 1 2.82593 1H26.806C36.0801 1 43.6006 8.52045 43.6006 17.7946C43.6006 27.0687 36.0801 34.5891 26.806 34.5891H24.4481C23.4366 34.5891 22.6221 35.4101 22.6221 36.4151V46.5956H2.82593V46.589Z" fill="url(#paint0_linear_475_3)"/>
<defs>
<linearGradient id="paint0_linear_475_3" x1="43.6072" y1="23.7978" x2="1" y2="23.7978" gradientUnits="userSpaceOnUse">
<stop stop-color="#FF0000"/>
<stop offset="1" stop-color="#FF8282"/>
</linearGradient>
</defs>
</svg>
