<svg width="660" height="346" viewBox="0 0 660 346" fill="none" xmlns="http://www.w3.org/2000/svg">
<g clip-path="url(#clip0_14798_87616)">
<path d="M521.828 278.324L500.457 279.818C500.117 276.902 499.285 273.207 496.99 265.747C494.629 257.927 493.683 255.888 491.539 254.015C489.747 252.399 487.516 251.815 484.589 252.02L475.268 252.672L474.208 267.789C473.77 274.053 473.716 277.456 473.968 281.66L454.33 283.033C455.178 278.752 455.547 275.974 456.03 269.154L459.498 219.56C459.901 213.84 459.956 210.448 459.711 206.056C463.721 205.963 467.089 205.811 473.296 205.377L497.044 203.716C511.845 202.681 519.885 209.823 518.957 223.096C518.497 229.644 516.311 234.936 512.51 238.59C510.082 240.865 508.087 242.016 503.508 243.806C508.063 244.958 510.016 246.927 512.483 253.27C513.642 256.129 514.71 259.171 518.119 268.836C518.941 271.343 519.879 273.571 521.816 278.304L521.828 278.324ZM476.367 236.916L490.618 235.919C496.005 235.543 499.532 231.991 499.895 226.743C500.258 221.495 497.526 219.111 491.859 219.507L477.515 220.51L476.367 236.916Z" fill="#23221E"/>
<path d="M576.447 274.031L560.556 275.142C560.333 271.947 559.557 268.603 557.588 261.777L550.897 237.84C550.834 237.386 548.694 229.008 548.477 228.283C547.964 226.116 547.584 224.613 547.338 223.776C547.48 229.541 547.319 237.079 546.972 241.961L545.576 261.97C545.134 268.329 545.03 272.371 545.309 276.208L527.312 277.467C528.145 273.28 528.603 269.391 529.041 263.126L532.4 215.094C532.785 209.563 532.851 204.7 532.68 200.761L556.791 199.075C557.149 202.991 557.675 205.894 559.352 211.833L570.272 250.611L586.66 209.923C589.19 203.596 590.128 200.601 590.95 196.686L615.154 194.994C614.298 199.453 613.844 203.248 613.42 209.428L610.062 257.461C609.572 264.469 609.499 268.05 609.796 271.699L591.798 272.957C592.646 268.676 593.068 265.165 593.528 258.617L594.939 238.524C595.097 236.313 595.854 229.38 596.237 226.507C596.648 223.239 596.915 221.143 597.038 220.217C594.526 227.544 593.375 230.929 591.955 234.333L581.332 260.21C578.589 266.917 577.115 271.055 576.458 274.04L576.447 274.031Z" fill="#23221E"/>
<path d="M404.757 286.316L385.119 287.69C385.949 283.597 386.42 279.436 386.801 273.999L390.291 224.122C390.642 219.146 390.749 215.01 390.5 210.712C394.779 210.6 398.065 210.454 403.909 210.045L423.91 208.647C441.99 207.382 451.336 215.444 450.215 231.483C449.068 247.888 437.974 258.39 420.247 259.63L405.819 260.639L404.996 272.435C404.615 277.872 404.575 282.368 404.756 286.306L404.757 286.316ZM406.924 244.966L420.531 244.015C426.925 243.567 430.921 239.712 431.363 233.354C431.805 226.995 428.482 223.923 421.902 224.383L408.294 225.334L406.924 244.966Z" fill="#23221E"/>
<path d="M322.488 236.681L322.864 222.978C326.319 223.153 329.382 223.106 334.779 222.728C342.169 222.211 351.404 221.232 359.838 219.975C363.505 219.469 364.608 219.141 366.233 218.36L372.332 228.025C370.834 228.964 366.122 232.935 358.198 239.939C353.529 244.018 351.956 245.379 346.096 249.875C350.83 248.377 353.257 247.873 357.574 247.572C365.38 247.026 370.811 248.481 374.939 252.028C378.676 255.353 380.414 260.069 379.991 266.103C379.394 274.568 375.021 281.546 367.156 286.599C361.192 290.352 353.084 292.837 344.781 293.418C330.748 294.399 322.585 289.382 323.238 280.079C323.788 272.285 331.07 266.188 340.702 265.514C346.68 265.096 351.835 267.071 355.109 270.929C356.638 272.657 357.439 274.268 358.463 277.283C363.088 274.958 365.361 271.963 365.667 267.688C366.08 261.822 360.683 258.613 351.466 259.257C342.249 259.902 333.172 263.289 325.356 268.756C322.67 270.612 319.857 272.893 316.948 275.599L310.119 263.4C318.007 259.262 336.495 244.292 347.51 233.264C343.072 234.074 339.741 234.474 327.991 235.879C325.744 236.12 324.157 236.398 322.477 236.682L322.488 236.681ZM345.843 281.918C345.046 277.971 342.871 275.954 339.633 276.181C337.723 276.314 336.314 277.497 336.202 279.173C336.047 281.435 338.606 282.674 343.09 282.361C344.086 282.291 344.252 282.279 345.843 281.918Z" fill="#23221E"/>
<path d="M234.929 249.312L235.515 235.01C237.581 235.032 238.49 235.052 240.566 234.907C242.808 234.75 265.187 232.602 272.923 231.81C273.215 226.452 273.213 225.368 272.961 222.967L287.658 221.94C287.125 224.896 286.97 225.824 286.642 230.518C300.43 229.47 306.584 228.873 309.934 228.305L309.059 242.043C305.34 241.97 303.695 242.002 294.146 242.669C289.745 242.977 289.164 243.018 285.838 243.334L285.095 253.894L284.963 255.738C287.056 260.012 287.702 263.886 287.302 269.502C286.645 278.888 281.256 287.438 271.981 293.674C267.734 296.473 262.865 298.732 254.817 301.63C252.91 295.842 251.294 292.869 247.859 288.94C256.335 287.096 261.162 285.424 265.327 282.631C268.531 280.572 270.396 278.607 271.936 275.58C268.247 278.757 265.348 279.961 260.532 280.297C250.9 280.971 244.533 275.078 245.168 266.11C245.835 256.556 254.101 249.473 265.559 248.671C268.216 248.486 270.113 248.603 271.975 249.14L272.159 246.542C272.215 245.76 272.235 245.091 272.217 244.536C254.991 246.241 241.405 247.942 234.95 249.311L234.929 249.312ZM265.803 259.163C262.149 259.418 259.351 261.615 259.154 264.465C258.971 267.063 261.159 268.828 264.315 268.607C267.885 268.358 270.775 265.987 270.972 263.138C271.156 260.54 269.114 258.931 265.792 259.163L265.803 259.163Z" fill="#23221E"/>
<path d="M197.192 275.786L194.359 275.985C193.555 280.899 193.056 282.862 191.733 286.166C187.46 296.649 178.846 304.132 164.267 309.832C162.511 305.003 161.055 302.53 157.701 298.553C165.889 295.875 172.216 292.399 175.849 288.569C178.786 285.518 180.202 282.208 181.033 276.927C179.932 277.004 177.739 277.251 174.346 277.665C174.655 274.621 174.945 271.754 175.186 268.339L177.687 232.657C178.049 227.399 178.147 226.11 178.149 223.451C180.409 223.564 182.232 223.531 186.986 223.198L216.484 221.135C220.781 220.835 222.788 220.601 225.374 220.149C224.924 222.662 224.669 224.973 224.362 229.394L221.936 264.059C221.687 267.652 221.561 270.778 221.666 274.357C220.942 274.345 219.998 274.379 218.836 274.461C218.29 274.405 217.2 274.481 215.475 274.425L213.094 274.685L210.541 274.863L209.402 291.091C209.341 292.013 209.775 292.253 211.239 292.151C212.246 292.081 213.088 291.751 213.29 291.361C213.8 290.596 214.386 286.145 214.864 280.608C218.805 282.813 221.541 283.904 225.837 284.792C224.26 295.64 223.3 298.918 221.142 301.174C218.984 303.431 215.833 304.298 208.069 304.841C197.472 305.582 195.196 304.365 195.63 298.184L197.203 275.786L197.192 275.786ZM190.83 234.313L190.554 238.273L210.461 236.881L210.737 232.921L190.83 234.313ZM189.879 247.859L189.607 251.735L209.515 250.343L209.786 246.467L189.879 247.859ZM188.932 261.321L188.661 265.197L208.568 263.805L208.84 259.929L188.932 261.321ZM152.912 239.623L151.636 239.712C148.709 239.917 147.335 240.107 143.752 240.628L144.698 227.166C147.599 227.328 149.785 227.269 153.439 227.014L167.326 226.043C170.98 225.787 173.173 225.54 176.127 224.969L175.18 238.431C172.556 238.343 170.827 238.37 167.63 238.594L166.447 238.677L165.431 253.238L167.258 253.11C170.185 252.906 171.196 252.741 172.937 252.442L172.043 265.16C170.048 265.112 168.225 265.156 166.399 265.284L164.572 265.412L163.731 277.397C167.108 275.878 168.239 275.34 172.751 273.19L172.115 286.172C161.252 292.071 155.614 294.665 144.857 299.086C143.079 299.763 142.423 300.08 141.116 300.63L138.949 286.197C141.813 285.539 144.415 284.71 149.911 282.773L151.059 266.367L149.232 266.495C146.855 266.661 145.025 266.883 142.905 267.302L143.807 254.396C145.892 254.521 147.528 254.5 150.444 254.297L151.908 254.194L152.923 239.633L152.912 239.623Z" fill="#23221E"/>
<path d="M85.4207 261.216L68.9799 262.366C64.413 262.685 62.3956 262.92 60.6396 263.314L61.0169 257.971L52.153 258.591C52.6707 256.449 52.8894 254.505 53.1227 251.278L53.6472 243.715C53.8132 241.316 53.8555 239.384 53.8047 236.271C56.709 236.339 59.7151 236.222 64.7387 235.871L86.9296 234.319L86.9781 233.67C87.1479 231.177 87.1748 229.621 87.0302 227.703L102.371 226.63C101.977 228.305 101.673 230.077 101.503 232.56L101.45 233.294L125.011 231.646C130.034 231.295 132.965 230.996 135.998 230.513C135.517 233.486 135.306 235.242 135.125 237.725L134.574 245.655C134.385 248.327 134.325 250.447 134.439 252.816L125.668 253.429L125.291 258.773C123.123 258.653 121.477 258.674 116.827 259L99.203 260.232C99.1271 261.335 99.0217 262.413 98.8867 263.465L117.154 262.187C122.271 261.83 123.552 261.646 125.761 261.315L124.972 272.566C122.712 272.453 121.252 272.461 116.415 272.799L97.5976 274.115C97.2932 275.878 97.2712 276.161 96.9933 277.556L122.838 275.749C128.131 275.379 130.605 275.112 133.372 274.554L132.497 287.093C128.776 286.988 125.68 287.017 121.3 287.324L102.026 288.671C104.054 290.823 106.317 292.312 109.937 293.81C115.247 295.92 121.973 297.097 133.659 297.749C129.691 303.802 128.429 306.184 126.479 312.012C116.661 310.77 111.919 309.632 105.647 307.047C98.9265 304.306 93.744 300.447 89.5848 294.962C85.6474 300.554 81.5584 304.426 75.7618 308.042C68.91 312.379 62.563 314.835 52.4859 317.197C51.2348 311.686 49.8262 308.397 47.0245 304.277C54.8366 303.084 58.9103 301.976 63.7777 299.988C69.6823 297.469 73.6029 294.62 77.2625 290.424L60.5518 291.592C56.7115 291.861 53.3201 292.286 49.4637 292.92L50.339 280.381C52.9593 280.562 55.3323 280.49 60.5323 280.126L82.9101 278.562C83.2852 277.066 83.4278 276.42 83.7011 275.108L67.2603 276.258C62.4236 276.596 61.0393 276.786 58.7436 277.218L59.5317 265.967C61.714 266.002 63.0692 265.99 68.0097 265.645L85.094 264.45C85.2347 263.28 85.3401 262.202 85.4103 261.217L85.4207 261.216ZM121.35 244.026L100.435 245.488C100.167 248.072 100.153 248.166 100.066 249.455L121.074 247.986L121.35 244.026ZM86.4544 246.466L66.7234 247.846L66.4475 251.806L86.2719 250.419C86.4114 248.387 86.4418 247.926 86.4544 246.466Z" fill="#23221E"/>
<path fill-rule="evenodd" clip-rule="evenodd" d="M290.274 105.072L307.898 103.839L307.909 103.839C307.773 100.554 307.91 95.9573 308.344 89.7764L310.026 65.8068C310.605 66.1347 311.931 66.6535 314.005 67.3634C322.866 70.5905 333.225 75.8291 341.655 81.3903L351.426 65.1115C337.776 57.5385 326.377 52.9252 311.208 48.8465L312.087 36.2127C312.52 30.0318 312.938 25.4156 313.49 22.7187L295.866 23.9511C296.065 28.8889 296.088 29.8048 295.567 37.2741L291.81 90.9326C291.297 98.2137 290.931 100.898 290.274 105.072ZM412.673 36.4242L427.93 35.3573C435.144 34.8528 437.431 34.5991 441.684 33.6658L440.545 49.8934C436.098 49.8395 433.912 49.8986 427.155 50.3711L410.984 51.5019C409.226 63.6446 407.249 69.8396 402.825 77.1128C398.826 83.6264 393.516 89.4186 387.086 94.2675C384.303 96.3907 382.203 97.8198 377.354 100.817C374.396 95.0611 371.954 92.2086 366.289 87.5592C377.289 82.2968 384.329 76.4775 389.042 68.9965C391.402 65.162 392.943 61.3847 393.687 57.1107C393.872 56.1803 394.126 54.6961 394.45 52.658L374.906 54.0247C368.325 54.4849 366.225 54.7256 361.631 55.4116L362.77 39.184C366.832 39.5463 368.654 39.5023 376.241 38.9717L396.336 37.5666C396.394 36.7077 396.509 35.4764 396.682 33.8728L397.014 29.075L397.173 26.8643C397.426 23.1771 397.491 19.7741 397.306 17.1287L414.847 15.9021C414.304 18.5519 414.274 18.8714 413.626 25.6205L413.626 25.6211L413.591 25.9873C413.365 28.3244 413.168 30.722 412.999 33.1801C412.955 33.8021 412.888 34.403 412.825 34.9664L412.824 34.9673L412.824 34.9679L412.824 34.9682L412.824 34.9694L412.824 34.9701L412.824 34.9706C412.766 35.4875 412.711 35.9726 412.682 36.4131L412.673 36.4242ZM444.887 45.0019L443.638 62.7906C449.242 61.94 452.256 61.6354 462.49 60.9198L505.969 57.8794C516.379 57.1515 520.392 56.9647 524.742 57.1192L525.991 39.3306C519.828 40.3974 516.344 40.8288 507.21 41.4675L463.554 44.5201C454.057 45.1842 449.136 45.3512 444.887 45.0019ZM563.986 115.059L568.19 121.187C567.478 122.342 566.597 124.509 565.375 127.618C554.762 155.881 538.128 174.11 509.856 188.472C507.571 183.398 504.082 178.69 499.88 175.137C524.61 164.693 540.524 148.996 548.782 127.037L524.461 129.009C518.16 138.53 510.287 147.065 502.108 153.6C498.083 148.836 495.341 146.463 489.915 143.444C500.931 135.429 509.618 125.554 516.178 113.628C518.887 108.664 520.424 104.981 520.882 102.29L537.924 104.216C537.732 104.569 537.598 104.805 537.473 105.026L537.469 105.033L537.468 105.034C537.258 105.405 537.071 105.733 536.676 106.502C536.611 106.658 536.489 106.904 536.338 107.206C536.218 107.448 536.079 107.727 535.937 108.024C535.863 108.175 535.788 108.327 535.715 108.475C535.375 109.162 535.068 109.782 534.982 110.019C534.67 110.626 534.412 111.146 534.211 111.551L534.211 111.552L534.208 111.558L534.205 111.563C533.937 112.104 533.771 112.438 533.716 112.495C533.6 112.774 533.281 113.443 532.88 114.117L553.626 112.479L555.639 112.338C554.395 109.308 553.022 106.829 551.051 103.85L560.302 100.263C563.201 104.283 565.257 108.632 566.893 113.834L563.995 115.048L563.986 115.059ZM564.571 98.9642L573.361 95.5035C576.091 99.347 577.917 103.077 579.979 108.708L571.079 112.541C568.945 106.633 567.128 102.726 564.581 98.9635L564.571 98.9642ZM579.254 126.324L580.35 113.071C583.865 113.659 588.818 113.646 597.454 113.042L599.779 112.88C601.721 108.741 602.457 106.438 603.006 103.397L618.116 103.508C618.057 103.61 618.002 103.706 617.95 103.795L617.932 103.826C617.339 104.847 617.171 105.135 616.095 107.569C615.169 109.421 614.604 110.656 614.334 111.244L614.332 111.248L614.332 111.25L614.331 111.251C614.238 111.455 614.181 111.579 614.157 111.624C614.714 111.53 616.408 111.3 619.241 110.935C627.411 109.947 635.951 108.265 640.436 106.784L639.999 120.075C637.412 120.506 634.896 120.932 632.475 121.352C626.537 122.351 616.115 123.663 607.632 124.507C606.042 127.12 605.395 128.166 603.214 130.987C606.897 129.062 610.368 127.985 613.938 127.735C620.83 127.253 624.794 129.645 626.074 134.976C627.041 134.575 629.025 133.769 632.028 132.558C632.281 132.457 634.575 131.546 637.288 130.523L637.837 130.305L638.492 130.045L638.493 130.044C642.243 128.557 642.853 128.315 644.11 127.544L648.244 140.431C643.884 141.32 634.84 144.288 626.676 147.611C626.605 149.867 626.6 149.951 626.336 153.639C626.073 157.327 626.072 158.662 626.161 160.824L612.593 162.189C612.931 160.915 613.198 158.311 613.628 153.277L612.852 153.665C608.901 155.776 608.384 156.145 606.796 157.591C605.295 158.947 604.444 160.508 604.341 162.016C604.115 165.201 607.098 166.243 615.152 165.68C625.117 164.983 634.769 162.807 642.015 159.632L641.876 174.653C640.268 174.821 637.787 175.245 634.434 175.924C627.735 177.226 620.81 178.128 614.334 178.581C604.951 179.237 599.14 178.475 594.844 176.107C590.867 173.967 588.763 169.694 589.121 164.665C589.398 160.726 590.87 157.454 593.932 153.82C597.253 150.002 601.182 146.975 606.514 144.017C608.019 143.179 608.883 142.744 610.579 141.889C611.202 141.575 611.936 141.205 612.856 140.738C612.207 139.365 611.257 138.765 609.68 138.875C605.445 139.171 599.514 142.505 593.339 148.024C589.631 151.369 587.229 153.872 584.771 157.046L574.968 147.223C577.766 145.026 581.493 141.346 584.381 137.892C586.362 135.501 590.032 130.408 591.418 128.309C592.346 126.854 592.934 125.924 593.184 125.517L590.527 125.703C588.147 125.869 585.768 126.008 583.391 126.118C582.233 126.116 581.651 126.157 580.489 126.238L579.254 126.324ZM423.997 115.205L412.587 128.94C421.381 133.277 428.715 138.821 436.073 146.656L447.854 131.519C440.664 125.048 435.025 121.22 423.997 115.205ZM410.41 173.127L413.919 190.499L413.918 190.478C416.027 189.721 416.76 189.504 419.055 188.825L419.061 188.823C419.51 188.69 420.02 188.539 420.612 188.363C437.879 183.215 446.797 179.193 457.113 172.05C470.489 162.858 479.928 151.377 489.506 132.631C483.011 128.039 481.035 126.343 476.943 121.218C473.792 128.507 470.977 133.749 466.725 139.916C458.918 151.47 450.211 158.959 438.369 164.562C429.526 168.767 419.773 171.742 410.41 173.127ZM399.039 126.405L411.205 134.364C410.366 135.096 409.226 136.246 407.785 137.814C402.47 143.69 396.549 148.962 389.831 154.018L387.842 182.409C387.427 188.401 387.28 191.809 387.498 195.088L371.244 196.225C371.95 192.6 372.303 190.188 372.772 183.462L374.116 164.197C366.024 169.444 363.009 170.937 349.512 176.739C347.853 171.809 346.002 168.457 342.668 164.186C357.008 159.243 369.555 152.674 380.886 144.083C389.039 137.915 395.867 131.298 399.028 126.396L399.039 126.405ZM312.008 159.46L327.629 158.368L327.63 158.367C335.766 157.798 336.586 157.741 341.849 157.832L342.931 142.432C338.776 143.275 336.489 143.529 328.362 144.097L277.483 147.655C269.906 148.184 267.357 148.279 263.472 147.905L262.385 163.388C266.065 162.766 268.633 162.493 276.21 161.963L294.934 160.654C293.163 175.456 285.376 184.163 268.314 190.308C273.421 195.173 275.153 197.711 277.979 204.122C290.939 198.087 298.162 192.349 303.763 183.701C308.36 176.499 310.523 170.301 312.008 159.46ZM274.442 123.557L273.351 139.135C276.855 138.525 279.319 138.259 287.269 137.703L319.787 135.429C329.098 134.778 330.557 134.769 334.091 134.887L335.181 119.309C331.116 120.23 329.005 120.471 320.514 121.065L288.546 123.3C280.606 123.855 278.504 123.919 274.442 123.557ZM244.925 153.142L238.438 153.596C236.462 166.213 234.658 172.479 231.068 179.61C226.969 187.507 221.141 194.253 213.359 200.208C208.663 203.747 204.956 205.935 197.715 209.464C194.907 202.874 193.082 200.343 188.05 195.65C202.269 189.881 210.822 183.32 215.997 174.243C218.998 168.987 220.656 163.461 221.904 154.752L203.273 156.055C197.286 165.001 194.305 168.608 187.496 175.047C183.879 170.901 181.035 168.712 174.886 165.65C184.274 157.467 190.361 149.796 195.739 139.152C198.688 133.441 200.124 129.671 201.066 125.383L217.624 127.707C217.49 127.986 217.367 128.243 217.25 128.486C216.531 129.982 216.058 130.967 214.952 133.492C214.087 135.45 212.921 137.856 211.451 140.711L246.066 138.291C253.01 137.805 255.567 137.533 260.542 136.632L259.421 152.671C255.151 152.605 251.328 152.684 244.935 153.131L244.925 153.142ZM86.8793 165.945L85.6304 183.734C91.2345 182.883 94.2483 182.579 104.482 181.863L147.961 178.823C158.372 178.095 162.385 177.908 166.734 178.063L167.983 160.274C161.821 161.341 158.336 161.772 149.202 162.411L105.547 165.463C96.0496 166.128 91.1279 166.295 86.8793 165.945ZM23.0294 160.496L64.8588 157.383C63.6123 159.589 60.8711 163.713 58.3954 166.728C54.8028 171.284 48.6411 177.584 43.129 182.286C38.2245 177.03 35.4116 174.392 28.3512 168.735L15.222 178.462C21.5108 183.526 25.4997 187.469 32.2999 195.521C39.2831 203.654 43.3984 209.705 48.2481 218.352L62.7066 206.603C58.7419 200.918 56.4153 197.776 52.8201 193.346C65.5948 182.278 73.7224 172.62 84.2431 156.017C86.7986 151.992 87.3037 151.31 88.8583 149.825L80.7894 140.486C78.8208 141.27 77.3451 141.644 74.4181 141.849L24.3549 145.444C17.1413 145.948 14.3266 145.968 9.33718 145.764L8.19818 161.992C12.2415 161.344 15.4525 161.026 23.0294 160.496ZM198.857 79.9087L200.106 62.1201C204.354 62.4693 209.276 62.3024 218.773 61.6383L262.429 58.5856C271.562 57.9469 275.047 57.5156 281.21 56.4488L279.961 74.2374C275.611 74.0829 271.598 74.2696 261.188 74.9976L217.709 78.038C207.475 78.7536 204.461 79.0582 198.857 79.9087ZM135.431 40.9474L135.42 40.9462L135.431 40.9455C135.431 40.9461 135.431 40.9467 135.431 40.9474ZM152.556 42.865L135.431 40.9474C133.242 65.5876 122.894 91.3611 109.586 104.947C114.425 107.173 119.967 111.102 123.704 114.875C136.806 99.0926 145.09 79.436 150.713 50.9688L151.231 48.8268L151.632 46.964C151.827 45.5743 152.064 44.6403 152.18 44.3612C152.202 44.0781 152.331 43.5271 152.556 42.865ZM179.454 37.7837L163.255 41.9396L163.539 43.0248L163.561 43.9406L163.959 47.3947C163.949 47.489 163.96 47.7131 163.976 48.0387C163.99 48.329 164.008 48.6999 164.018 49.1315C165.681 74.7019 172.138 95.444 183.157 110.728C187.768 105.818 192.115 102.21 198.399 98.1007C189.548 86.9709 184.628 75.3889 181.31 57.9197C180.179 52.0358 179.19 41.4717 179.431 38.0563L179.454 37.7837ZM202.981 43.1023C203.388 37.2985 199.146 33.0082 193.479 33.4045C187.728 33.8066 182.823 38.8304 182.43 44.5394C182.036 50.2484 186.368 54.6262 192.025 54.2306C197.682 53.8351 202.573 48.9062 202.981 43.1023ZM187.547 44.1919C187.744 41.3322 190.287 38.7671 193.12 38.569L193.13 38.5683C195.871 38.3767 198.067 40.7042 197.875 43.4698C197.682 46.2354 195.046 48.807 192.306 48.9986C189.566 49.1902 187.351 47.0516 187.547 44.1919Z" fill="url(#paint0_linear_14798_87616)"/>
</g>
<path d="M401.244 307.452C400.977 303.627 402.374 300.642 404.179 298.586L405.939 299.238C404.26 301.287 403.034 303.88 403.273 307.31C403.514 310.758 405.09 313.156 407.038 314.95L405.386 315.841C403.312 314.056 401.513 311.295 401.244 307.452ZM421.253 299.936C421.293 300.51 421.792 300.945 422.367 300.904C422.924 300.866 423.358 300.366 423.318 299.791C423.278 299.217 422.778 298.783 422.221 298.822C421.647 298.862 421.213 299.361 421.253 299.936ZM420.14 300.014C420.057 298.829 420.958 297.791 422.144 297.708C423.311 297.627 424.348 298.529 424.431 299.714C424.514 300.899 423.612 301.936 422.445 302.018C421.26 302.101 420.222 301.199 420.14 300.014ZM410.83 308.027C411.48 305.978 411.986 303.399 412.059 301.084L414.701 301.459C414.593 301.971 414.439 302.866 414.396 303.284C414.232 304.559 413.758 307.064 413.246 308.778C412.721 310.565 411.805 312.686 410.966 314.098L408.378 313.214C409.388 311.664 410.313 309.669 410.83 308.027ZM419.657 307.048C418.843 305.211 417.508 302.634 416.64 301.323L418.975 300.384C419.825 301.714 421.24 304.394 422.043 306.07C422.803 307.659 423.955 310.447 424.564 312.191L421.966 313.238C421.334 311.154 420.511 308.938 419.657 307.048ZM426.782 304.169C427.45 304.176 428.748 304.157 429.681 304.092C431.8 303.944 437.726 303.53 439.324 303.418C440.168 303.359 440.951 303.214 441.434 303.144L441.632 305.981C441.2 305.993 440.278 305.967 439.524 306.02C437.89 306.134 431.982 306.548 429.863 306.696C428.858 306.766 427.658 306.904 426.98 307.006L426.782 304.169ZM449.186 309.242C449.089 307.859 448.57 300.426 448.464 298.917C448.419 298.271 448.303 297.395 448.133 296.757L450.934 296.561C450.907 297.213 450.871 297.991 450.924 298.745C451.062 300.72 451.571 307.74 451.664 309.069C451.699 309.572 451.859 310.823 452 311.553L449.181 311.75C449.258 311.041 449.235 309.942 449.186 309.242ZM450.577 301.26C453.011 301.757 456.989 302.904 458.809 303.643L457.978 306.209C455.857 305.293 452.76 304.355 450.757 303.845L450.577 301.26ZM469.019 297.408C468.977 296.815 468.84 295.886 468.638 295.323L471.476 295.125C471.426 295.706 471.441 296.697 471.48 297.254C471.55 298.259 471.645 299.606 471.729 300.809C472.001 304.705 471.219 307.972 467.279 310.719L464.919 309.224C468.586 307.218 469.502 304.321 469.269 300.981C469.185 299.778 469.089 298.413 469.019 297.408ZM462.468 299.724C463.03 299.757 463.77 299.76 464.488 299.709C465.512 299.638 474.562 299.005 475.657 298.928C476.483 298.871 477.251 298.763 477.625 298.682L477.797 301.142C477.417 301.133 476.517 301.16 475.799 301.21C474.721 301.285 465.671 301.918 464.702 301.986C463.93 302.04 463.214 302.126 462.643 302.22L462.468 299.724ZM480.65 300.402C481.318 300.409 482.616 300.39 483.55 300.325C485.669 300.177 491.594 299.763 493.192 299.651C494.036 299.592 494.82 299.447 495.302 299.377L495.501 302.214C495.068 302.226 494.146 302.201 493.392 302.253C491.758 302.368 485.851 302.781 483.732 302.929C482.726 302.999 481.527 303.137 480.848 303.239L480.65 300.402ZM501.736 298.999L502.198 305.607L500.133 305.752L499.81 301.137L497.799 301.278L497.659 299.284L501.736 298.999ZM502.139 304.763C502.904 305.901 504.215 306.332 506.07 306.275C508.232 306.232 512.484 305.88 514.966 305.508C514.766 306.009 514.494 307.021 514.448 307.656C512.211 307.92 508.389 308.224 506.191 308.269C504.03 308.33 502.539 307.911 501.365 306.604C500.696 307.354 499.989 308.089 499.146 308.924L497.973 306.859C498.693 306.321 499.528 305.614 500.271 304.894L502.139 304.763ZM497.34 293.948L498.908 292.629C499.987 293.348 501.328 294.463 501.944 295.268L500.262 296.757C499.715 295.911 498.425 294.756 497.34 293.948ZM502.126 293.234L513.439 292.443L513.56 294.185L502.248 294.976L502.126 293.234ZM502.551 302.659L514.312 301.837L514.435 303.597L502.674 304.419L502.551 302.659ZM506.525 291.627L508.626 291.48L509.614 305.612L507.513 305.759L506.525 291.627ZM505.237 299.278L505.3 300.176L511.082 299.771L511.019 298.873L505.237 299.278ZM505.079 297.015L505.141 297.895L510.923 297.491L510.861 296.611L505.079 297.015ZM503 295.663L512.822 294.976L513.251 301.117L503.429 301.804L503 295.663ZM522.791 290.454L524.656 290.811C524.08 292.89 522.975 294.898 521.641 296.2C521.345 295.842 520.629 295.152 520.21 294.839C521.398 293.763 522.351 292.163 522.791 290.454ZM526.763 290.23L528.878 290.551C528.427 291.575 527.937 292.566 527.551 293.243L525.85 292.91C526.193 292.147 526.583 291.019 526.763 290.23ZM523.265 296.465L531.202 295.91L531.288 297.149L523.352 297.704L523.265 296.465ZM521.621 300.821L528.121 300.366L528.242 302.09L521.742 302.544L521.621 300.821ZM523.126 294.472L531.062 293.917L531.149 295.156L523.212 295.711L523.126 294.472ZM525.968 292.794L527.889 292.66L528.315 298.747L526.393 298.881L525.968 292.794ZM528.349 301.812L531.275 301.607L531.383 303.151L527.99 303.389L528.349 301.812ZM530.521 301.66L532.478 301.523C532.478 301.523 532.476 302.01 532.459 302.282C532.403 304.578 532.229 305.691 531.794 306.19C531.444 306.594 531.041 306.766 530.451 306.843C529.97 306.931 529.109 307.009 528.189 307.02C528.116 306.483 527.831 305.764 527.492 305.3C528.305 305.315 529.15 305.274 529.491 305.25C529.778 305.23 529.973 305.181 530.108 305.045C530.378 304.773 530.515 303.898 530.538 301.893L530.521 301.66ZM523.929 301.309L526.064 301.142C525.984 304.377 524.906 306.257 522.415 307.532C522.153 307.135 521.378 306.377 520.941 306.065C523.115 305.155 523.97 303.706 523.929 301.309ZM523.51 292.226L531.429 291.672L531.533 293.163L522.268 293.811L523.51 292.226ZM522.139 294.036L523.875 292.291L524.356 299.168L522.507 299.297L522.139 294.036ZM522.454 298.543L532.043 297.873L532.149 299.399L522.561 300.069L522.454 298.543ZM515.434 300.08C516.883 299.636 519.05 298.889 521.072 298.134L521.495 300.054C519.651 300.778 517.647 301.532 516.064 302.111L515.434 300.08ZM515.329 294.44L520.823 294.056L520.961 296.031L515.467 296.415L515.329 294.44ZM516.995 290.913L518.97 290.775L519.988 305.338C520.058 306.343 519.918 306.912 519.384 307.274C518.869 307.653 518.102 307.779 516.935 307.861C516.843 307.326 516.53 306.464 516.237 305.889C516.886 305.879 517.515 305.835 517.729 305.802C517.945 305.787 518.031 305.727 518.013 305.476L516.995 290.913ZM527.618 300.401L529.504 300.269C529.34 301.544 529.119 303.021 528.917 304.009L527.085 303.867C527.289 302.914 527.5 301.546 527.618 300.401ZM546.441 290.641C546.479 291.179 546.94 291.58 547.479 291.542C548.017 291.505 548.436 291.042 548.399 290.504C548.361 289.965 547.881 289.547 547.342 289.585C546.803 289.623 546.404 290.102 546.441 290.641ZM545.346 290.717C545.266 289.568 546.116 288.57 547.265 288.49C548.415 288.409 549.414 289.278 549.494 290.427C549.574 291.576 548.705 292.557 547.555 292.638C546.406 292.718 545.426 291.866 545.346 290.717ZM542.818 290.172C542.782 290.427 542.735 291.315 542.767 291.764C542.841 292.823 542.948 294.349 543.02 295.391C543.122 296.845 543.496 302.196 543.602 303.704C543.675 304.746 543.109 305.435 541.834 305.524C540.883 305.591 539.821 305.629 538.915 305.584L538.544 303.372C539.308 303.463 540.102 303.462 540.551 303.431C541.018 303.398 541.168 303.225 541.154 302.757C541.124 302.073 540.727 296.399 540.668 295.555C540.624 294.927 540.49 293.005 540.413 291.91C540.381 291.443 540.237 290.677 540.16 290.358L542.818 290.172ZM534.22 293.66C534.764 293.695 535.396 293.704 535.953 293.666C537.048 293.589 545.757 292.98 547.05 292.89C547.552 292.854 548.321 292.747 548.802 292.659L548.966 295.011C548.406 294.996 547.704 295.027 547.22 295.061C545.927 295.151 537.29 295.755 536.105 295.838C535.566 295.876 534.885 295.942 534.386 296.031L534.22 293.66ZM539.139 298.206C538.424 299.844 536.918 302.313 536.023 303.44L533.974 302.267C535.097 301.033 536.395 298.958 537.025 297.38L539.139 298.206ZM546.771 296.644C547.767 297.729 549.362 299.891 550.172 301.152L548.152 302.466C547.272 300.976 545.845 298.892 544.888 297.84L546.771 296.644ZM552.475 295.379C553.143 295.387 554.441 295.368 555.374 295.303C557.493 295.155 563.419 294.74 565.017 294.628C565.861 294.569 566.645 294.424 567.127 294.355L567.325 297.192C566.893 297.204 565.971 297.178 565.217 297.231C563.583 297.345 557.675 297.758 555.556 297.906C554.551 297.977 553.352 298.115 552.673 298.216L552.475 295.379ZM576.476 293.611C578.773 294.731 582.256 296.797 584.019 298.009L582.438 300.177C580.773 298.814 577.186 296.538 574.992 295.356L576.476 293.611ZM584.72 289.967C584.528 290.323 584.33 290.842 584.199 291.302C583.776 292.992 582.842 295.367 581.365 297.473C579.824 299.692 577.666 301.864 574.327 303.396L572.119 301.746C575.79 300.317 577.795 298.282 579.213 296.378C580.317 294.876 581.286 292.733 581.529 291.309L575.46 291.733L576.144 289.646L581.262 289.288C581.818 289.249 582.405 289.118 582.809 288.964L584.72 289.967ZM578.583 287.617C578.196 288.276 577.787 289.134 577.598 289.526C576.546 291.783 574.44 294.691 571.979 296.65L569.953 295.294C572.96 293.135 574.44 290.559 575.246 288.933C575.486 288.483 575.805 287.631 575.923 286.991L578.583 287.617ZM596.321 300.271C596.387 299.923 596.406 299.435 596.373 298.95C596.306 297.998 595.742 289.936 595.641 288.481C595.584 287.673 595.409 286.982 595.407 286.946L598.064 286.76C598.067 286.796 597.991 287.523 598.048 288.331C598.148 289.767 598.627 296.609 598.703 297.704C600.132 296.973 601.792 295.431 602.892 293.604L604.396 295.502C603.041 297.545 600.609 299.664 598.651 300.829C598.288 301.053 598.086 301.266 597.916 301.404L596.321 300.271ZM587.989 300.601C589.51 299.375 590.364 297.656 590.741 296.078C591.155 294.515 590.934 291.102 590.783 288.947C590.732 288.211 590.627 287.749 590.488 287.308L593.128 287.123C593.133 287.195 593.064 288.012 593.115 288.748C593.264 290.885 593.476 294.677 593.135 296.524C592.719 298.574 591.73 300.429 590.282 301.902L587.989 300.601ZM610.847 292.795C611.115 296.638 609.718 299.622 607.913 301.679L606.153 301.027C607.833 298.978 609.059 296.385 608.817 292.937C608.578 289.507 607.003 287.109 605.055 285.315L606.706 284.423C608.78 286.209 610.579 288.97 610.847 292.795Z" fill="#23221E"/>
<defs>
<linearGradient id="paint0_linear_14798_87616" x1="25.4547" y1="222.297" x2="631.473" y2="179.913" gradientUnits="userSpaceOnUse">
<stop stop-color="#FF746C"/>
<stop offset="0.31" stop-color="#FF5FB4"/>
<stop offset="0.665" stop-color="#CC65DF"/>
<stop offset="1" stop-color="#7575FA"/>
</linearGradient>
<clipPath id="clip0_14798_87616">
<rect width="640" height="276" fill="white" transform="translate(0 44.6406) rotate(-4)"/>
</clipPath>
</defs>
</svg>
