<svg width="331" height="76" viewBox="0 0 331 76" fill="none" xmlns="http://www.w3.org/2000/svg">
<path d="M94.996 2.60337L101.076 3.69137C101.012 3.91537 100.98 4.10737 100.98 4.20337C100.948 4.29937 100.884 4.61937 100.852 5.09937L100.756 5.73937L100.628 6.47537C99.348 16.2674 96.916 22.9234 92.692 28.1074C91.284 26.6994 89.236 25.1954 87.476 24.2994C91.828 19.8834 94.836 11.1474 94.996 2.60337ZM104.82 3.62737L110.42 2.57137C110.42 2.60337 110.42 2.63537 110.42 2.66737C110.42 3.85137 111.028 7.56337 111.572 9.64337C113.172 15.8194 115.188 19.9794 118.58 24.0754C116.468 25.3554 115.028 26.5074 113.524 28.1074C109.268 22.5074 106.484 15.1154 105.268 6.15537C105.236 5.83537 105.204 5.61137 105.204 5.54737L104.98 4.33137L104.948 4.01137C104.948 4.01137 104.884 3.81937 104.82 3.62737ZM115.252 1.38737C117.236 1.38737 118.836 2.98737 118.836 5.00337C118.836 6.98737 117.236 8.61937 115.252 8.61937C113.268 8.61937 111.636 6.98737 111.636 5.00337C111.636 2.98737 113.236 1.38737 115.252 1.38737ZM115.252 3.17937C114.26 3.17937 113.428 4.01137 113.428 5.00337C113.428 5.96337 114.26 6.79537 115.22 6.79537C116.212 6.79537 117.044 5.96337 117.044 5.00337C117.044 4.01137 116.212 3.17937 115.252 3.17937ZM119.572 17.7394V11.5634C121.076 11.7874 122.804 11.8514 126.132 11.8514H141.428C144.628 11.8514 145.844 11.7874 147.988 11.5634V17.7394C146.452 17.5794 145.044 17.5474 141.396 17.5474H126.164C122.58 17.5474 121.524 17.5794 119.572 17.7394ZM162.388 28.7474H156.212C156.34 27.3074 156.404 26.3794 156.404 23.8514V5.22737C156.404 2.63537 156.372 2.31537 156.18 0.587374H162.356C162.228 1.51537 162.196 3.11537 162.196 5.25937V9.64337C167.636 11.4354 171.764 13.3234 176.756 16.2994L173.716 21.7394C170.612 19.5954 166.836 17.5154 163.636 16.1714C162.516 15.7234 162.516 15.7234 162.196 15.5314V23.8514C162.196 25.9954 162.26 27.5954 162.388 28.7474ZM198.9 7.78737H204.244C206.772 7.78737 207.572 7.75537 209.044 7.53137V13.1634C207.476 13.0354 206.708 13.0034 204.34 13.0034H198.676C198.356 17.1954 197.812 19.3074 196.436 21.7394C195.188 23.9154 193.46 25.8034 191.316 27.3394C190.388 28.0114 189.684 28.4594 188.052 29.3874C186.868 27.3074 185.94 26.2514 183.828 24.4914C187.572 22.9234 189.908 21.0674 191.38 18.5714C192.116 17.2914 192.564 16.0114 192.724 14.5394C192.788 14.0594 192.788 14.0594 192.884 13.0034H186.036C183.732 13.0034 182.996 13.0354 181.396 13.1634V7.53137C182.836 7.75537 183.476 7.78737 186.132 7.78737H193.172C193.172 7.33937 193.172 7.33937 193.204 6.50737V4.84337C193.204 4.65137 193.204 4.65137 193.204 4.07537C193.204 2.79537 193.14 1.61137 193.012 0.683374H199.156C199.028 1.61137 199.028 1.70737 198.964 4.17137C198.932 5.38737 198.932 5.38737 198.932 6.66737C198.932 7.08337 198.9 7.46737 198.9 7.78737ZM211.732 17.7394V11.5634C213.236 11.7874 214.964 11.8514 218.292 11.8514H233.588C236.788 11.8514 238.004 11.7874 240.148 11.5634V17.7394C238.612 17.5794 237.204 17.5474 233.556 17.5474H218.324C214.74 17.5474 213.684 17.5794 211.732 17.7394ZM20.6484 53.0434L5.99238 53.1074C3.33638 53.1074 2.21638 53.1394 0.808376 53.2674V47.6354C2.56838 47.8274 3.56038 47.8914 6.08838 47.8914L23.6244 47.8594C24.6484 47.8594 25.1604 47.7634 25.8324 47.5394L28.9044 50.9954C28.3924 51.4754 28.2324 51.6994 27.4324 53.0434C24.1364 58.5794 21.5124 61.7474 17.2884 65.2994C18.6644 66.9314 19.5604 68.0834 21.0964 70.1634L16.2964 73.9074C14.3764 70.7714 12.7764 68.5634 10.1204 65.5554C7.52838 62.5794 6.02438 61.1074 3.68838 59.1874L8.07238 56.1154C10.6964 58.2594 11.7524 59.2514 13.6084 61.2034C15.4324 59.6994 17.4484 57.6514 18.6004 56.1474C19.4004 55.1554 20.2644 53.7794 20.6484 53.0434ZM29.8876 62.7394V56.5634C31.3916 56.7874 33.1196 56.8514 36.4476 56.8514H51.7436C54.9436 56.8514 56.1596 56.7874 58.3036 56.5634V62.7394C56.7676 62.5794 55.3596 62.5474 51.7116 62.5474H36.4796C32.8956 62.5474 31.8396 62.5794 29.8876 62.7394ZM83.9356 55.9554H81.6636C81.2796 60.3074 80.7996 62.4514 79.7116 64.8514C78.4636 67.5074 76.5756 69.7154 73.9836 71.6034C72.4156 72.7234 71.1676 73.3954 68.7036 74.4514C67.5516 72.0834 66.8476 71.1554 64.9596 69.3954C69.8236 67.7314 72.6716 65.6514 74.2716 62.6114C75.1996 60.8514 75.6476 58.9634 75.8716 55.9554H69.3436C67.4556 58.9314 66.4956 60.1154 64.2556 62.1954C62.8796 60.6594 61.8236 59.8274 59.5836 58.6114C62.6876 55.9874 64.6396 53.4594 66.2716 49.8754C67.1676 47.9554 67.5836 46.6754 67.8076 45.2034L73.6956 46.4194C73.4076 47.0914 73.2796 47.3794 72.8956 48.3714C72.5116 49.3634 72.5116 49.3634 71.8396 50.8034H83.9676C86.3996 50.8034 87.2956 50.7714 89.0236 50.5794V56.1474C87.5196 56.0194 86.1756 55.9554 83.9356 55.9554ZM114.464 59.7954H108.992C108.736 63.5394 108.128 65.6514 106.688 68.0514C104.928 70.9314 102.528 72.7554 98.1116 74.5474C96.9596 72.2434 96.2876 71.3154 94.3676 69.4914C100.224 67.7634 102.752 64.9154 103.008 59.7954H96.4476C93.7916 59.7954 92.8956 59.8274 91.6156 59.9554V54.5794C92.9916 54.8034 93.8876 54.8354 96.5436 54.8354H114.368C117.216 54.8354 118.016 54.8034 119.456 54.6114V59.9554C117.6 59.7954 117.312 59.7954 114.464 59.7954ZM94.8796 51.7634V46.3554C96.3196 46.5794 97.0556 46.6114 99.8396 46.6114H111.04C114.016 46.6114 114.752 46.5794 116.16 46.3554V51.7634C114.912 51.6354 114.4 51.6034 111.136 51.6034H99.7436C96.9596 51.6034 96.0956 51.6354 94.8796 51.7634ZM142.656 50.3874L147.136 53.4594C146.72 53.8114 146.72 53.8114 146.016 54.5794C144.288 56.4994 142.336 58.1954 140.096 59.7954V69.6514C140.096 71.7314 140.128 72.9154 140.288 74.0674H134.592C134.752 72.8194 134.816 71.9874 134.816 69.6514V62.9634C132.096 64.5954 131.072 65.0434 126.464 66.7394C125.76 64.9794 125.024 63.7634 123.744 62.1954C128.672 60.8194 132.928 58.8354 136.704 56.1154C139.424 54.1634 141.664 52.0194 142.656 50.3874ZM153.888 51.6034L157.568 47.0914C161.6 49.4594 163.68 50.9314 166.368 53.3634L162.592 58.3554C159.808 55.4434 157.088 53.3314 153.888 51.6034ZM155.872 73.1074L154.208 66.9634C157.472 66.7074 160.832 65.9074 163.84 64.6594C167.872 62.9954 170.752 60.5954 173.216 56.7554C174.56 54.7074 175.424 52.9474 176.352 50.4834C177.92 52.3714 178.656 53.0114 181.056 54.7714C178.144 61.0754 175.104 64.8514 170.624 67.7314C167.168 69.9714 164.128 71.1554 158.176 72.5314C156.928 72.8194 156.736 72.8514 155.872 73.1074ZM208.128 50.4514L209.76 52.6914C209.536 53.0754 209.28 53.8114 208.928 54.8674C205.888 64.4674 200.48 70.4194 190.88 74.7394C189.952 72.9154 188.608 71.1874 187.04 69.8434C195.488 66.8034 200.704 61.7154 203.072 54.2594L194.56 54.3554C192.576 57.5234 190.016 60.3074 187.296 62.3874C185.76 60.6274 184.736 59.7314 182.752 58.5474C186.432 56.0194 189.248 52.7874 191.264 48.7874C192.096 47.1234 192.544 45.8754 192.64 44.9474L198.688 46.0354C198.528 46.3554 198.496 46.3874 198.304 46.8034C198.272 46.8994 198.176 47.0914 198.08 47.3154C197.952 47.6034 197.824 47.8914 197.792 47.9874C197.568 48.4674 197.44 48.7874 197.408 48.8194C197.376 48.9154 197.28 49.1394 197.152 49.3634L204.416 49.2994H205.12C204.608 48.2114 204.064 47.3154 203.296 46.2274L206.464 45.2034C207.584 46.6754 208.416 48.2434 209.12 50.0994L208.128 50.4514ZM207.936 44.8514L210.944 43.8594C212 45.2674 212.736 46.6114 213.6 48.6274L210.56 49.7474C209.664 47.6354 208.928 46.2274 207.936 44.8514Z" fill="url(#paint0_linear_14798_66604)"/>
<path d="M226.912 57.0034C226.384 61.1314 225.568 64.2274 224.272 67.0594C222.88 70.1314 221.272 71.4754 219.088 71.4754C215.872 71.4754 213.616 68.4034 213.616 64.0114C213.616 61.2034 214.576 58.6594 216.376 56.6914C218.488 54.3874 221.536 53.1634 225.064 53.1634C228.28 53.1634 231.112 54.2434 232.888 56.1154C234.424 57.7474 235.24 60.0754 235.24 62.7874C235.24 65.9074 234.064 68.7394 232.048 70.5394C230.416 72.0034 228.52 72.7714 225.16 73.2994C224.584 71.5714 224.128 70.7074 223.12 69.3634C225.376 69.1954 226.864 68.8114 228.16 68.1394C230.008 67.1554 231.04 65.1394 231.04 62.5714C231.04 60.5314 230.32 58.8994 228.928 57.8434C228.304 57.3634 227.776 57.1474 226.912 57.0034ZM222.76 57.0514C221.752 57.1954 220.984 57.5554 220.144 58.2754C218.56 59.6194 217.528 61.8514 217.528 63.9874C217.528 65.6914 218.176 67.0354 219.016 67.0354C219.616 67.0354 220.24 66.1954 220.96 64.3714C221.8 62.2114 222.496 59.4274 222.76 57.0514ZM258.016 54.0994H264.352C265.664 54.0994 266.592 54.0354 267.264 53.9074V58.8354C266.56 58.7394 266.08 58.7074 264.928 58.7074H264.544V70.5154C264.544 72.7554 264.576 73.6834 264.736 74.8354H259.552C259.712 73.6834 259.744 72.7234 259.744 70.5154V58.7074H257.984C257.856 63.0914 257.664 65.1074 257.088 67.8594C256.48 70.6754 255.648 72.6914 254.144 75.0594C252.288 73.6194 251.488 73.1074 249.6 72.2114C251.04 70.2914 251.84 68.6914 252.448 66.4834C253.024 64.3074 253.28 59.7314 253.28 50.7714C253.28 49.3634 253.216 48.0834 253.056 47.0914C256.224 46.8354 258.496 46.3874 261.216 45.5234C262.464 45.1394 263.264 44.7554 263.712 44.4354L267.36 48.8834C266.784 49.0434 266.784 49.0434 266.176 49.2354C264.256 49.8754 261.696 50.4194 258.016 50.9634V54.0994ZM247.68 58.4514V59.8594H249.088C250.752 59.8594 251.488 59.8274 252.352 59.6994V64.3394C251.424 64.2434 250.624 64.2114 249.184 64.2114C249.888 64.9794 250.56 65.5234 251.712 66.2914C250.784 68.0194 250.272 69.1714 249.76 70.6434C248.704 69.7154 248.288 69.2674 247.616 68.2434C247.648 69.4274 247.68 69.9394 247.68 70.3554V72.2114C247.68 73.3954 247.712 74.0674 247.84 74.8034H242.848C242.944 74.1314 242.976 73.4594 242.976 72.4354V70.8354C242.976 70.3554 243.008 69.8754 243.04 69.0754C241.632 71.1554 240.704 72.1154 238.496 73.6834C238.048 71.8594 237.504 70.5474 236.544 68.8514C237.472 68.3714 238.464 67.6034 239.808 66.3874C240.48 65.7474 240.96 65.2034 241.664 64.2114H240.288C238.784 64.2114 238.016 64.2434 237.088 64.3394V59.6994C238.016 59.8274 238.656 59.8594 240.384 59.8594H242.976V58.4514H240.288C238.816 58.4514 238.016 58.4834 237.088 58.5794V53.8434C237.92 53.9714 238.464 54.0034 240.032 54.0034C239.872 53.0754 239.648 52.1794 239.328 51.3474C238.592 51.3794 238.336 51.3794 237.696 51.4434V46.7714C238.592 46.8994 239.36 46.9314 240.992 46.9314H242.784C242.752 45.7474 242.752 45.4594 242.624 44.6274H248C247.872 45.3634 247.84 45.7154 247.84 46.9314H249.152C250.848 46.9314 251.52 46.8994 252.416 46.7714V51.4434C251.84 51.3794 251.648 51.3794 251.136 51.3474C250.976 51.9554 250.56 53.5234 250.4 54.0034C251.36 53.9714 251.84 53.9394 252.544 53.8434V58.5794C251.552 58.4834 250.784 58.4514 249.28 58.4514H247.68ZM244.576 54.0034H245.92C246.24 53.0754 246.432 52.3714 246.592 51.3154H243.904C244.256 52.2754 244.352 52.6594 244.576 54.0034ZM280.896 66.2914L284.064 64.4034C282.496 64.4354 281.728 64.4674 280.576 64.5634V59.8914C281.408 59.9874 282.464 60.0194 284.352 60.0194H290.496V58.2594H284.352C283.04 58.2594 281.568 58.3234 280.576 58.4194V53.8114C281.312 53.9074 282.784 53.9714 284.416 53.9714H286.784V52.0514H284.96C284.288 52.0834 283.424 52.0834 282.432 52.1154C282.112 52.1154 281.792 52.1154 281.216 52.1794V47.5074C282.208 47.6354 283.296 47.6994 284.8 47.6994H286.784V47.0914C286.784 46.1634 286.752 45.5234 286.624 44.8514H291.648C291.552 45.4914 291.488 46.1314 291.488 47.0594V47.6994H293.888C295.328 47.6994 296.48 47.6354 297.44 47.5074V52.1794C296.48 52.0834 295.648 52.0514 293.952 52.0514H291.488V53.9714H294.624C296.192 53.9714 297.6 53.9074 298.336 53.8114V58.4194C297.408 58.2914 296.704 58.2594 295.168 58.2594V60.0194C296.832 60.0194 297.504 59.9874 298.176 59.8914V64.5634C297.248 64.4354 296.704 64.4034 295.168 64.4034V70.7394C295.168 73.6834 293.728 74.6434 289.376 74.6434C289.056 74.6434 288.096 74.6114 286.912 74.6114C286.72 72.7554 286.496 71.7314 286.016 70.5474L284.736 71.5394C283.456 69.2674 282.528 67.9874 280.896 66.2914ZM290.496 64.4034H285.312C286.624 65.6514 287.584 66.8034 288.64 68.4994L286.592 70.0994C287.872 70.2274 288.544 70.2594 289.344 70.2594C290.24 70.2594 290.496 70.0674 290.496 69.4594V64.4034ZM269.312 68.8194V49.6834C269.312 48.0834 269.28 47.4754 269.184 46.2274C270.048 46.3234 270.56 46.3554 271.872 46.3554H277.28C278.528 46.3554 279.136 46.3234 279.936 46.2594C279.872 46.9634 279.872 47.5714 279.872 49.4274V68.4994C279.872 70.3874 279.872 70.8994 279.936 71.8594H275.488V70.2594H273.76V73.0434H269.12C269.28 71.9554 269.312 70.8994 269.312 68.8194ZM273.792 50.6434V56.0514H275.52V50.6434H273.792ZM273.792 60.2434V65.8434H275.52V60.2434H273.792ZM325.888 57.2994L319.808 57.6514C320.192 60.3394 320.8 62.4514 321.664 64.4354C322.272 65.7794 323.008 66.9634 323.84 67.9234C324.096 68.2434 324.64 68.6914 324.768 68.6914C325.184 68.6914 325.568 66.6754 325.792 63.2194C327.488 64.6274 328.288 65.1394 330.016 65.9714C329.6 69.6194 329.088 71.5394 328.16 73.0434C327.424 74.1954 326.464 74.7714 325.216 74.7714C323.584 74.7714 321.984 73.7474 320.16 71.5394C317.44 68.2114 315.68 63.7634 314.848 57.9074L312.32 58.0674C310.72 58.1634 310.08 58.2274 309.088 58.3874L309.056 53.4914C309.984 53.5234 310.08 53.5234 310.432 53.5234C310.944 53.5234 312.096 53.4914 312.64 53.4594L314.368 53.3634C314.24 51.4434 314.24 51.4434 314.144 47.7634C314.144 46.7394 314.08 45.8754 313.952 45.0434L319.328 44.9474C319.2 45.7154 319.168 46.3554 319.168 47.6674C319.168 49.4914 319.2 50.7394 319.36 53.0434L323.84 52.7874C322.688 51.0594 321.248 49.3314 319.584 47.6034L323.488 44.9794C325.184 46.5794 326.336 47.8274 328.16 50.1634L324.64 52.7234L325.504 52.6914C327.36 52.5634 328.288 52.4674 329.28 52.2754L329.312 57.2674C328.704 57.2034 328.384 57.2034 327.936 57.2034C327.296 57.2034 326.944 57.2034 325.888 57.2994ZM303.328 70.7714V63.5714C303.328 61.8434 303.328 61.1714 303.392 60.1474C302.176 61.7794 301.952 62.0674 300.992 63.0274C300.352 60.4674 299.968 59.4114 298.976 57.4594C301.6 54.6114 303.264 51.9554 304.608 48.4994C305.248 46.9314 305.632 45.5874 305.792 44.4354L310.784 46.0674C309.856 48.7554 309.856 48.7554 308.224 52.4674V70.7714C308.224 72.4674 308.288 73.4914 308.416 74.7394H303.136C303.264 73.5554 303.328 72.4674 303.328 70.7714Z" fill="white"/>
<defs>
<linearGradient id="paint0_linear_14798_66604" x1="8.2948" y1="36.8594" x2="247.335" y2="36.8594" gradientUnits="userSpaceOnUse">
<stop stop-color="#FF746C"/>
<stop offset="0.3" stop-color="#FF5FB4"/>
<stop offset="0.695" stop-color="#CC65DF"/>
<stop offset="1" stop-color="#7575FA"/>
</linearGradient>
</defs>
</svg>
