<svg width="1188" height="77" viewBox="0 0 1188 77" fill="none" xmlns="http://www.w3.org/2000/svg">
<path d="M18.4446 9.876L33.2646 12.528C33.1086 13.074 33.0306 13.542 33.0306 13.776C32.9526 14.01 32.7966 14.79 32.7186 15.96L32.4846 17.52L32.1726 19.314C29.0526 43.182 23.1246 59.406 12.8286 72.042C9.39665 68.61 4.40465 64.944 0.114647 62.76C10.7226 51.996 18.0546 30.702 18.4446 9.876ZM42.3906 12.372L56.0406 9.798C56.0406 9.876 56.0406 9.954 56.0406 10.032C56.0406 12.918 57.5226 21.966 58.8486 27.036C62.7487 42.09 67.6627 52.23 75.9307 62.214C70.7826 65.334 67.2726 68.142 63.6066 72.042C53.2326 58.392 46.4467 40.374 43.4826 18.534C43.4046 17.754 43.3266 17.208 43.3266 17.052L42.7806 14.088L42.7026 13.308C42.7026 13.308 42.5467 12.84 42.3906 12.372ZM67.8187 6.912C72.6546 6.912 76.5546 10.812 76.5546 15.726C76.5546 20.562 72.6546 24.54 67.8187 24.54C62.9827 24.54 59.0046 20.562 59.0046 15.726C59.0046 10.812 62.9046 6.912 67.8187 6.912ZM67.8187 11.28C65.4006 11.28 63.3727 13.308 63.3727 15.726C63.3727 18.066 65.4006 20.094 67.7407 20.094C70.1587 20.094 72.1866 18.066 72.1866 15.726C72.1866 13.308 70.1587 11.28 67.8187 11.28ZM78.3486 46.77V31.716C82.0146 32.262 86.2266 32.418 94.3386 32.418H131.623C139.423 32.418 142.387 32.262 147.613 31.716V46.77C143.869 46.38 140.437 46.302 131.545 46.302H94.4166C85.6806 46.302 83.1066 46.38 78.3486 46.77ZM182.713 73.602H167.659C167.971 70.092 168.127 67.83 168.127 61.668V16.272C168.127 9.954 168.049 9.174 167.581 4.962H182.635C182.323 7.224 182.245 11.124 182.245 16.35V27.036C195.505 31.404 205.567 36.006 217.735 43.26L210.325 56.52C202.759 51.294 193.555 46.224 185.755 42.948C183.025 41.856 183.025 41.856 182.245 41.388V61.668C182.245 66.894 182.401 70.794 182.713 73.602ZM271.711 22.512H284.737C290.899 22.512 292.849 22.434 296.437 21.888V35.616C292.615 35.304 290.743 35.226 284.971 35.226H271.165C270.385 45.444 269.059 50.592 265.705 56.52C262.663 61.824 258.451 66.426 253.225 70.17C250.963 71.808 249.247 72.9 245.269 75.162C242.383 70.092 240.121 67.518 234.973 63.228C244.099 59.406 249.793 54.882 253.381 48.798C255.175 45.678 256.267 42.558 256.657 38.97C256.813 37.8 256.813 37.8 257.047 35.226H240.355C234.739 35.226 232.945 35.304 229.045 35.616V21.888C232.555 22.434 234.115 22.512 240.589 22.512H257.749C257.749 21.42 257.749 21.42 257.827 19.392V15.336C257.827 14.868 257.827 14.868 257.827 13.464C257.827 10.344 257.671 7.458 257.359 5.196H272.335C272.023 7.458 272.023 7.692 271.867 13.698C271.789 16.662 271.789 16.662 271.789 19.782C271.789 20.796 271.711 21.732 271.711 22.512ZM302.989 46.77V31.716C306.655 32.262 310.867 32.418 318.979 32.418H356.263C364.063 32.418 367.027 32.262 372.253 31.716V46.77C368.509 46.38 365.077 46.302 356.185 46.302H319.057C310.321 46.302 307.747 46.38 302.989 46.77ZM427.867 23.136L392.143 23.292C385.669 23.292 382.939 23.37 379.507 23.682V9.954C383.797 10.422 386.215 10.578 392.377 10.578L435.121 10.5C437.617 10.5 438.865 10.266 440.503 9.72L447.991 18.144C446.743 19.314 446.353 19.86 444.403 23.136C436.369 36.63 429.973 44.352 419.677 53.01C423.031 56.988 425.215 59.796 428.959 64.866L417.259 73.992C412.579 66.348 408.679 60.966 402.205 53.634C395.887 46.38 392.221 42.792 386.527 38.112L397.213 30.624C403.609 35.85 406.183 38.268 410.707 43.026C415.153 39.36 420.067 34.368 422.875 30.702C424.825 28.284 426.931 24.93 427.867 23.136ZM450.387 46.77V31.716C454.053 32.262 458.265 32.418 466.377 32.418H503.661C511.461 32.418 514.425 32.262 519.651 31.716V46.77C515.907 46.38 512.475 46.302 503.583 46.302H466.455C457.719 46.302 455.145 46.38 450.387 46.77ZM582.129 30.234H576.591C575.655 40.842 574.485 46.068 571.833 51.918C568.791 58.392 564.189 63.774 557.871 68.376C554.049 71.106 551.007 72.744 545.001 75.318C542.193 69.546 540.477 67.284 535.875 62.994C547.731 58.938 554.673 53.868 558.573 46.458C560.835 42.168 561.927 37.566 562.473 30.234H546.561C541.959 37.488 539.619 40.374 534.159 45.444C530.805 41.7 528.231 39.672 522.771 36.708C530.337 30.312 535.095 24.15 539.073 15.414C541.257 10.734 542.271 7.614 542.817 4.026L557.169 6.99C556.467 8.628 556.155 9.33 555.219 11.748C554.283 14.166 554.283 14.166 552.645 17.676H582.207C588.135 17.676 590.319 17.598 594.531 17.13V30.702C590.865 30.39 587.589 30.234 582.129 30.234ZM656.541 39.594H643.203C642.579 48.72 641.097 53.868 637.587 59.718C633.297 66.738 627.447 71.184 616.683 75.552C613.875 69.936 612.237 67.674 607.557 63.228C621.831 59.016 627.993 52.074 628.617 39.594H612.627C606.153 39.594 603.969 39.672 600.849 39.984V26.88C604.203 27.426 606.387 27.504 612.861 27.504H656.307C663.249 27.504 665.199 27.426 668.709 26.958V39.984C664.185 39.594 663.483 39.594 656.541 39.594ZM608.805 20.016V6.834C612.315 7.38 614.109 7.458 620.895 7.458H648.195C655.449 7.458 657.243 7.38 660.675 6.834V20.016C657.633 19.704 656.385 19.626 648.429 19.626H620.661C613.875 19.626 611.769 19.704 608.805 20.016ZM725.259 16.662L736.179 24.15C735.165 25.008 735.165 25.008 733.449 26.88C729.237 31.56 724.479 35.694 719.019 39.594V63.618C719.019 68.688 719.097 71.574 719.487 74.382H705.603C705.993 71.34 706.149 69.312 706.149 63.618V47.316C699.519 51.294 697.023 52.386 685.791 56.52C684.075 52.23 682.281 49.266 679.161 45.444C691.173 42.09 701.547 37.254 710.751 30.624C717.381 25.866 722.841 20.64 725.259 16.662ZM752.637 19.626L761.607 8.628C771.435 14.4 776.505 17.988 783.057 23.916L773.853 36.084C767.067 28.986 760.437 23.838 752.637 19.626ZM757.473 72.042L753.417 57.066C761.373 56.442 769.563 54.492 776.895 51.45C786.723 47.394 793.743 41.544 799.749 32.184C803.025 27.192 805.131 22.902 807.393 16.896C811.215 21.498 813.009 23.058 818.859 27.348C811.761 42.714 804.351 51.918 793.431 58.938C785.007 64.398 777.597 67.284 763.089 70.638C760.047 71.34 759.579 71.418 757.473 72.042ZM884.847 16.818L888.825 22.278C888.279 23.214 887.655 25.008 886.797 27.582C879.387 50.982 866.205 65.49 842.805 76.02C840.543 71.574 837.267 67.362 833.445 64.086C854.037 56.676 866.751 44.274 872.523 26.1L851.775 26.334C846.939 34.056 840.699 40.842 834.069 45.912C830.325 41.622 827.829 39.438 822.993 36.552C831.963 30.39 838.827 22.512 843.741 12.762C845.769 8.706 846.861 5.664 847.095 3.402L861.837 6.054C861.447 6.834 861.369 6.912 860.901 7.926C860.823 8.16 860.589 8.628 860.355 9.174C860.043 9.876 859.731 10.578 859.653 10.812C859.107 11.982 858.795 12.762 858.717 12.84C858.639 13.074 858.405 13.62 858.093 14.166L875.799 14.01H877.515C876.267 11.358 874.941 9.174 873.069 6.522L880.791 4.026C883.521 7.614 885.549 11.436 887.265 15.96L884.847 16.818ZM884.379 3.168L891.711 0.749995C894.285 4.182 896.079 7.458 898.185 12.372L890.775 15.102C888.591 9.954 886.797 6.522 884.379 3.168Z" fill="url(#paint0_linear_14798_77557)"/>
<path d="M933.955 29.384C932.547 40.392 930.371 48.648 926.915 56.2C923.203 64.392 918.915 67.976 913.091 67.976C904.515 67.976 898.499 59.784 898.499 48.072C898.499 40.584 901.059 33.8 905.859 28.552C911.491 22.408 919.619 19.144 929.027 19.144C937.603 19.144 945.155 22.024 949.891 27.016C953.987 31.368 956.163 37.576 956.163 44.808C956.163 53.128 953.027 60.68 947.651 65.48C943.299 69.384 938.243 71.432 929.283 72.84C927.747 68.232 926.531 65.928 923.843 62.344C929.859 61.896 933.827 60.872 937.283 59.08C942.211 56.456 944.963 51.08 944.963 44.232C944.963 38.792 943.043 34.44 939.331 31.624C937.667 30.344 936.259 29.768 933.955 29.384ZM922.883 29.512C920.195 29.896 918.147 30.856 915.907 32.776C911.683 36.36 908.931 42.312 908.931 48.008C908.931 52.552 910.659 56.136 912.899 56.136C914.499 56.136 916.163 53.896 918.083 49.032C920.323 43.272 922.179 35.848 922.883 29.512ZM1011.84 25.71H1027.28C1030.48 25.71 1032.74 25.554 1034.38 25.242V37.254C1032.67 37.02 1031.5 36.942 1028.69 36.942H1027.75V65.724C1027.75 71.184 1027.83 73.446 1028.22 76.254H1015.58C1015.97 73.446 1016.05 71.106 1016.05 65.724V36.942H1011.76C1011.45 47.628 1010.98 52.542 1009.58 59.25C1008.1 66.114 1006.07 71.028 1002.4 76.8C997.877 73.29 995.927 72.042 991.325 69.858C994.835 65.178 996.785 61.278 998.267 55.896C999.671 50.592 1000.3 39.438 1000.3 17.598C1000.3 14.166 1000.14 11.046 999.749 8.628C1007.47 8.00399 1013.01 6.912 1019.64 4.806C1022.68 3.87 1024.63 2.934 1025.72 2.154L1034.62 12.996C1033.21 13.386 1033.21 13.386 1031.73 13.854C1027.05 15.414 1020.81 16.74 1011.84 18.066V25.71ZM986.645 36.318V39.75H990.077C994.133 39.75 995.927 39.672 998.033 39.36V50.67C995.771 50.436 993.821 50.358 990.311 50.358C992.027 52.23 993.665 53.556 996.473 55.428C994.211 59.64 992.963 62.448 991.715 66.036C989.141 63.774 988.127 62.682 986.489 60.186C986.567 63.072 986.645 64.32 986.645 65.334V69.858C986.645 72.744 986.723 74.382 987.035 76.176H974.867C975.101 74.538 975.179 72.9 975.179 70.404V66.504C975.179 65.334 975.257 64.164 975.335 62.214C971.903 67.284 969.641 69.624 964.259 73.446C963.167 69 961.841 65.802 959.501 61.668C961.763 60.498 964.181 58.626 967.457 55.662C969.095 54.102 970.265 52.776 971.981 50.358H968.627C964.961 50.358 963.089 50.436 960.827 50.67V39.36C963.089 39.672 964.649 39.75 968.861 39.75H975.179V36.318H968.627C965.039 36.318 963.089 36.396 960.827 36.63V25.086C962.855 25.398 964.181 25.476 968.003 25.476C967.613 23.214 967.067 21.03 966.287 19.002C964.493 19.08 963.869 19.08 962.309 19.236V7.848C964.493 8.16 966.365 8.238 970.343 8.238H974.711C974.633 5.352 974.633 4.65 974.321 2.622H987.425C987.113 4.41599 987.035 5.274 987.035 8.238H990.233C994.367 8.238 996.005 8.16 998.189 7.848V19.236C996.785 19.08 996.317 19.08 995.069 19.002C994.679 20.484 993.665 24.306 993.275 25.476C995.615 25.398 996.785 25.32 998.501 25.086V36.63C996.083 36.396 994.211 36.318 990.545 36.318H986.645ZM979.079 25.476H982.355C983.135 23.214 983.603 21.498 983.993 18.924H977.441C978.299 21.264 978.533 22.2 979.079 25.476ZM1067.61 55.428L1075.33 50.826C1071.51 50.904 1069.64 50.982 1066.83 51.216V39.828C1068.86 40.062 1071.43 40.14 1076.03 40.14H1091.01V35.85H1076.03C1072.84 35.85 1069.25 36.006 1066.83 36.24V25.008C1068.62 25.242 1072.21 25.398 1076.19 25.398H1081.96V20.718H1077.52C1075.88 20.796 1073.77 20.796 1071.35 20.874C1070.57 20.874 1069.79 20.874 1068.39 21.03V9.642C1070.81 9.954 1073.46 10.11 1077.13 10.11H1081.96V8.628C1081.96 6.366 1081.88 4.806 1081.57 3.168H1093.82C1093.58 4.728 1093.43 6.288 1093.43 8.55V10.11H1099.28C1102.79 10.11 1105.6 9.954 1107.94 9.642V21.03C1105.6 20.796 1103.57 20.718 1099.43 20.718H1093.43V25.398H1101.07C1104.89 25.398 1108.33 25.242 1110.12 25.008V36.24C1107.86 35.928 1106.14 35.85 1102.4 35.85V40.14C1106.45 40.14 1108.09 40.062 1109.73 39.828V51.216C1107.47 50.904 1106.14 50.826 1102.4 50.826V66.27C1102.4 73.446 1098.89 75.786 1088.28 75.786C1087.5 75.786 1085.16 75.708 1082.27 75.708C1081.81 71.184 1081.26 68.688 1080.09 65.802L1076.97 68.22C1073.85 62.682 1071.59 59.562 1067.61 55.428ZM1091.01 50.826H1078.37C1081.57 53.868 1083.91 56.676 1086.49 60.81L1081.49 64.71C1084.61 65.022 1086.25 65.1 1088.2 65.1C1090.39 65.1 1091.01 64.632 1091.01 63.15V50.826ZM1039.37 61.59V14.946C1039.37 11.046 1039.3 9.564 1039.06 6.522C1041.17 6.756 1042.42 6.834 1045.61 6.834H1058.8C1061.84 6.834 1063.32 6.756 1065.27 6.6C1065.11 8.316 1065.11 9.798 1065.11 14.322V60.81C1065.11 65.412 1065.11 66.66 1065.27 69H1054.43V65.1H1050.22V71.886H1038.91C1039.3 69.234 1039.37 66.66 1039.37 61.59ZM1050.29 17.286V30.468H1054.51V17.286H1050.29ZM1050.29 40.686V54.336H1054.51V40.686H1050.29ZM1177.28 33.51L1162.46 34.368C1163.39 40.92 1164.88 46.068 1166.98 50.904C1168.46 54.18 1170.26 57.066 1172.29 59.406C1172.91 60.186 1174.24 61.278 1174.55 61.278C1175.56 61.278 1176.5 56.364 1177.04 47.94C1181.18 51.372 1183.13 52.62 1187.34 54.648C1186.33 63.54 1185.08 68.22 1182.82 71.886C1181.02 74.694 1178.68 76.098 1175.64 76.098C1171.66 76.098 1167.76 73.602 1163.32 68.22C1156.69 60.108 1152.4 49.266 1150.37 34.992L1144.21 35.382C1140.31 35.616 1138.75 35.772 1136.33 36.162L1136.25 24.228C1138.51 24.306 1138.75 24.306 1139.6 24.306C1140.85 24.306 1143.66 24.228 1144.99 24.15L1149.2 23.916C1148.89 19.236 1148.89 19.236 1148.65 10.266C1148.65 7.77 1148.5 5.664 1148.18 3.636L1161.29 3.402C1160.98 5.274 1160.9 6.834 1160.9 10.032C1160.9 14.478 1160.98 17.52 1161.37 23.136L1172.29 22.512C1169.48 18.3 1165.97 14.088 1161.91 9.876L1171.43 3.48C1175.56 7.38 1178.37 10.422 1182.82 16.116L1174.24 22.356L1176.34 22.278C1180.87 21.966 1183.13 21.732 1185.55 21.264L1185.62 33.432C1184.14 33.276 1183.36 33.276 1182.27 33.276C1180.71 33.276 1179.85 33.276 1177.28 33.51ZM1122.29 66.348V48.798C1122.29 44.586 1122.29 42.948 1122.44 40.452C1119.48 44.43 1118.93 45.132 1116.59 47.472C1115.03 41.232 1114.1 38.658 1111.68 33.9C1118.08 26.958 1122.13 20.484 1125.41 12.06C1126.97 8.238 1127.9 4.962 1128.29 2.154L1140.46 6.132C1138.2 12.684 1138.2 12.684 1134.22 21.732V66.348C1134.22 70.482 1134.38 72.978 1134.69 76.02H1121.82C1122.13 73.134 1122.29 70.482 1122.29 66.348Z" fill="white"/>
<defs>
<linearGradient id="paint0_linear_14798_77557" x1="52.0636" y1="39.5" x2="881.385" y2="39.5" gradientUnits="userSpaceOnUse">
<stop stop-color="#FF746C"/>
<stop offset="0.3" stop-color="#FF5FB4"/>
<stop offset="0.695" stop-color="#CC65DF"/>
<stop offset="1" stop-color="#7575FA"/>
</linearGradient>
</defs>
</svg>
