<svg width="343" height="96" viewBox="0 0 343 96" fill="none" xmlns="http://www.w3.org/2000/svg">
<path d="M97.9312 22V4.12H104.219C108.131 4.12 111.371 5.536 111.371 9.952C111.371 14.2 108.107 16.072 104.315 16.072H102.227V22H97.9312ZM102.227 12.688H104.099C106.187 12.688 107.195 11.704 107.195 9.952C107.195 8.152 106.043 7.528 103.979 7.528H102.227V12.688ZM116.473 22.336C113.953 22.336 112.417 20.464 112.417 18.184C112.417 15.304 114.673 13.744 120.001 13.168C119.905 12.064 119.329 11.416 117.937 11.416C116.857 11.416 115.729 11.848 114.361 12.616L112.873 9.808C114.673 8.728 116.617 8.008 118.753 8.008C122.281 8.008 124.273 9.976 124.273 14.248V22H120.793L120.505 20.632H120.385C119.257 21.64 117.985 22.336 116.473 22.336ZM117.937 19.024C118.801 19.024 119.377 18.616 120.001 17.944V15.76C117.337 16.096 116.473 16.888 116.473 17.848C116.473 18.64 117.049 19.024 117.937 19.024ZM127.572 22V8.344H131.052L131.364 10.72H131.436C132.444 8.896 133.956 8.008 135.324 8.008C136.14 8.008 136.596 8.128 136.98 8.296L136.284 11.968C135.78 11.848 135.372 11.752 134.772 11.752C133.764 11.752 132.54 12.4 131.844 14.2V22H127.572ZM144.081 22.336C140.649 22.336 139.257 20.152 139.257 16.936V11.68H137.409V8.512L139.521 8.344L140.001 4.72H143.529V8.344H146.745V11.68H143.529V16.888C143.529 18.4 144.249 19 145.257 19C145.689 19 146.169 18.856 146.505 18.736L147.177 21.832C146.457 22.048 145.473 22.336 144.081 22.336ZM149.392 22V8.344H152.872L153.184 10.048H153.256C154.384 8.944 155.776 8.008 157.624 8.008C160.6 8.008 161.872 10.144 161.872 13.552V22H157.6V14.08C157.6 12.184 157.096 11.656 156.016 11.656C155.056 11.656 154.48 12.088 153.664 12.88V22H149.392ZM171.381 22.336C167.445 22.336 164.421 19.696 164.421 15.16C164.421 10.744 167.613 8.008 170.901 8.008C174.837 8.008 176.757 10.864 176.757 14.584C176.757 15.352 176.661 16.096 176.565 16.432H168.549C168.933 18.304 170.229 19.072 171.957 19.072C172.941 19.072 173.853 18.784 174.837 18.208L176.253 20.776C174.837 21.784 172.965 22.336 171.381 22.336ZM168.477 13.624H173.133C173.133 12.28 172.533 11.272 170.973 11.272C169.797 11.272 168.765 12.016 168.477 13.624ZM179.486 22V8.344H182.966L183.278 10.72H183.35C184.358 8.896 185.87 8.008 187.238 8.008C188.054 8.008 188.51 8.128 188.894 8.296L188.198 11.968C187.694 11.848 187.286 11.752 186.686 11.752C185.678 11.752 184.454 12.4 183.758 14.2V22H179.486ZM190.955 22V4.12H197.243C201.155 4.12 204.395 5.536 204.395 9.952C204.395 14.2 201.131 16.072 197.339 16.072H195.251V22H190.955ZM195.251 12.688H197.123C199.211 12.688 200.219 11.704 200.219 9.952C200.219 8.152 199.067 7.528 197.003 7.528H195.251V12.688ZM207.095 22V8.344H210.575L210.887 10.72H210.959C211.967 8.896 213.479 8.008 214.847 8.008C215.663 8.008 216.119 8.128 216.503 8.296L215.807 11.968C215.303 11.848 214.895 11.752 214.295 11.752C213.287 11.752 212.063 12.4 211.367 14.2V22H207.095ZM223.711 22.336C220.231 22.336 217.015 19.696 217.015 15.16C217.015 10.648 220.231 8.008 223.711 8.008C227.167 8.008 230.383 10.648 230.383 15.16C230.383 19.696 227.167 22.336 223.711 22.336ZM223.711 18.88C225.295 18.88 226.015 17.44 226.015 15.16C226.015 12.904 225.295 11.464 223.711 11.464C222.103 11.464 221.383 12.904 221.383 15.16C221.383 17.44 222.103 18.88 223.711 18.88ZM233.064 26.968V8.344H236.544L236.856 9.664H236.928C238.008 8.704 239.352 8.008 240.768 8.008C244.032 8.008 246.096 10.744 246.096 14.944C246.096 19.648 243.288 22.336 240.36 22.336C239.208 22.336 238.104 21.832 237.192 20.92L237.336 23.056V26.968H233.064ZM239.352 18.832C240.648 18.832 241.704 17.752 241.704 15.016C241.704 12.616 241.008 11.488 239.496 11.488C238.704 11.488 238.056 11.848 237.336 12.64V18.04C238.008 18.64 238.704 18.832 239.352 18.832Z" fill="white"/>
<path d="M26.108 37.432C26.108 38.128 26.684 38.704 27.38 38.704C28.076 38.704 28.652 38.128 28.652 37.432C28.652 36.736 28.076 36.16 27.38 36.16C26.684 36.16 26.108 36.736 26.108 37.432ZM24.404 37.432C24.404 35.8 25.748 34.456 27.38 34.456C29.012 34.456 30.356 35.8 30.356 37.432C30.356 39.064 29.012 40.408 27.38 40.408C25.748 40.408 24.404 39.064 24.404 37.432ZM10.892 47.392C11.972 44.608 12.836 41.368 13.124 38.152L17.372 39.04C17.156 39.808 16.82 41.248 16.724 41.8C16.388 43.6 15.5 46.744 14.756 48.856C13.916 51.256 12.428 54.136 11.228 55.864L7.124 54.136C8.612 52.192 10.052 49.576 10.892 47.392ZM22.748 47.128C21.86 44.584 20.276 40.912 19.268 39.064L23.156 37.816C24.188 39.736 25.892 43.648 26.732 45.832C27.524 47.896 28.796 51.808 29.468 54.304L25.124 55.72C24.428 52.648 23.684 49.744 22.748 47.128ZM32.204 43.48C33.164 43.552 35.18 43.648 36.356 43.648C39.788 43.648 46.748 43.648 49.1 43.648C50.18 43.648 51.356 43.528 52.052 43.48V48.064C51.428 48.04 50.084 47.92 49.1 47.92C46.724 47.92 39.764 47.92 36.356 47.92C34.988 47.92 33.188 47.992 32.204 48.064V43.48ZM60.884 52.6C60.884 50.488 60.884 40.936 60.884 38.896C60.884 37.936 60.788 36.688 60.596 35.776H65.132C65.036 36.688 64.892 37.744 64.892 38.896C64.892 40.936 64.892 50.464 64.892 52.6C64.892 53.248 65.036 55.144 65.156 56.224H60.596C60.764 55.192 60.884 53.584 60.884 52.6ZM64.028 41.944C67.244 42.808 72.596 44.728 74.804 45.808L73.148 49.864C70.436 48.472 66.644 47.032 64.028 46.144V41.944ZM87.812 38.824C87.812 37.984 87.716 36.688 87.452 35.776H92.06C91.892 36.688 91.844 38.08 91.844 38.848C91.844 40.192 91.844 41.728 91.844 43.408C91.844 48.592 90.716 53.056 84.884 56.608L81.26 53.92C86.612 51.52 87.812 47.608 87.812 43.408C87.812 41.728 87.812 40.144 87.812 38.824ZM79.124 40.936C79.988 41.032 81.02 41.128 82.052 41.128C83.54 41.128 95.036 41.128 96.692 41.128C97.964 41.128 99.044 41.032 99.62 40.96V44.944C99.044 44.896 97.748 44.824 96.668 44.824C95.036 44.824 83.54 44.824 82.148 44.824C81.02 44.824 80.012 44.896 79.124 44.968V40.936ZM102.764 43.48C103.724 43.552 105.74 43.648 106.916 43.648C110.348 43.648 117.308 43.648 119.66 43.648C120.74 43.648 121.916 43.528 122.612 43.48V48.064C121.988 48.04 120.644 47.92 119.66 47.92C117.284 47.92 110.324 47.92 106.916 47.92C105.548 47.92 103.748 47.992 102.764 48.064V43.48ZM142.076 35.2C142.676 36.088 143.516 37.648 143.948 38.488L141.668 39.448C141.164 38.464 140.468 37.048 139.82 36.112L142.076 35.2ZM145.028 34.048C145.652 34.96 146.516 36.496 146.924 37.312L144.668 38.272C144.188 37.288 143.42 35.872 142.772 34.96L145.028 34.048ZM131.948 36.376C131.828 37.192 131.756 38.488 131.756 39.184C131.756 40.768 131.756 49.12 131.756 50.968C131.756 51.904 132.212 52.144 133.244 52.336C133.94 52.432 134.78 52.456 135.788 52.456C138.284 52.456 142.268 52.12 144.236 51.592V55.84C141.86 56.176 138.212 56.32 135.548 56.32C133.916 56.32 132.452 56.2 131.396 56.032C129.188 55.624 127.868 54.328 127.868 52.168C127.868 49.168 127.868 40.792 127.868 39.184C127.868 38.656 127.796 37.192 127.676 36.376H131.948ZM130.052 43.624C133.244 42.928 137.228 41.656 139.58 40.696C140.516 40.336 141.38 39.928 142.484 39.28L144.02 42.952C142.964 43.384 141.764 43.888 140.924 44.2C138.188 45.232 133.508 46.648 130.076 47.416L130.052 43.624ZM165.428 36.28C166.148 37.36 167.06 38.896 167.588 39.976L165.116 41.032C164.348 39.376 163.964 38.584 163.028 37.264L165.428 36.28ZM168.836 35.104C169.628 36.136 170.492 37.624 171.068 38.656L168.62 39.736C167.78 38.08 167.324 37.384 166.388 36.112L168.836 35.104ZM154.916 35.752C156.596 36.664 159.164 38.272 160.532 39.208L158.372 42.424C156.932 41.464 154.484 39.904 152.804 38.968L154.916 35.752ZM149.996 52.72C152.708 52.264 155.516 51.544 158.228 50.08C162.356 47.8 165.812 44.416 167.708 40.96L169.94 44.944C167.636 48.328 164.204 51.328 160.22 53.608C157.772 54.976 154.244 56.224 152.18 56.56L149.996 52.72ZM151.172 41.272C152.9 42.184 155.444 43.792 156.788 44.728L154.652 47.992C153.188 46.984 150.764 45.4 149.06 44.488L151.172 41.272ZM185.444 35.176C185.372 35.776 185.276 36.664 185.276 37.456C185.276 38.224 185.276 39.448 185.276 40.288H181.46C181.46 39.448 181.46 38.368 181.46 37.456C181.46 36.64 181.412 35.8 181.316 35.176H185.444ZM192.212 40.576C191.516 41.296 190.652 42.232 190.076 42.88C188.684 44.44 186.692 46.384 184.556 47.92C181.964 49.792 178.004 51.472 174.5 52.528L172.268 49.096C176.948 48.112 180.068 46.408 182.084 45.112C183.764 44.032 185.012 42.904 185.66 41.992C184.268 41.992 178.676 41.992 177.692 41.992C176.804 41.992 175.22 42.04 174.452 42.112V38.344C175.436 38.488 176.78 38.512 177.62 38.512C178.676 38.512 186.14 38.512 187.556 38.512C188.396 38.512 189.164 38.416 189.812 38.248L192.212 40.576ZM185.228 45.64C185.228 47.296 185.228 51.28 185.228 53.272C185.228 54.28 185.324 55.816 185.396 56.56H181.244C181.34 55.912 181.436 54.28 181.436 53.272C181.436 51.4 181.436 48.568 181.436 47.176L185.228 45.64ZM192.14 52.72C190.052 51.016 188.396 49.984 186.428 48.832L188.804 46.048C190.988 47.224 192.212 47.896 194.564 49.504L192.14 52.72ZM215.252 38.608C215.036 38.92 214.532 39.76 214.268 40.36C213.26 42.592 211.508 45.808 209.396 48.304C206.708 51.448 202.988 54.496 199.292 56.272L196.268 53.128C200.156 51.712 203.948 48.76 206.084 46.384C207.644 44.608 208.94 42.496 209.444 40.96C208.364 40.96 203.132 40.96 201.98 40.96C200.9 40.96 199.58 41.104 198.908 41.152V37.024C199.748 37.144 201.284 37.216 201.98 37.216C203.42 37.216 208.844 37.216 209.996 37.216C211.196 37.216 212.324 37.048 212.876 36.856L215.252 38.608ZM209.708 45.904C212.132 47.824 215.66 51.52 217.172 53.392L213.836 56.296C212.036 53.728 209.516 50.992 206.948 48.616L209.708 45.904ZM230.324 35.584C230.156 36.448 229.82 37.912 229.124 39.688C228.668 40.72 228.092 41.944 227.564 42.76C228.044 42.616 229.268 42.52 229.94 42.52C232.004 42.52 233.564 43.744 233.564 46.144C233.564 47.464 233.66 50.008 233.684 51.52H230.228C230.324 50.488 230.372 48.688 230.372 47.368C230.372 45.76 229.412 45.328 228.548 45.328C227.324 45.328 225.836 46.12 225.02 46.936C224.3 47.68 223.604 48.544 222.788 49.648L219.692 47.32C222.572 44.752 224.54 42.28 225.644 39.28C226.1 38.008 226.412 36.544 226.484 35.272L230.324 35.584ZM220.82 37.6C222.02 37.792 223.844 37.888 225.14 37.888C228.26 37.888 232.7 37.72 236.252 37.096L236.228 40.456C232.82 40.912 227.78 41.128 224.948 41.128C223.988 41.128 222.14 41.08 220.82 40.96V37.6ZM240.212 44.992C239.372 45.232 237.86 45.784 236.948 46.144C235.46 46.72 233.348 47.56 231.14 48.664C229.076 49.744 228.188 50.608 228.188 51.736C228.188 52.744 228.932 53.152 231.188 53.152C233.324 53.152 236.06 52.864 238.172 52.408L238.052 56.152C236.588 56.368 233.492 56.584 231.116 56.584C227.18 56.584 224.348 55.552 224.348 52.36C224.348 48.784 228.02 46.72 230.924 45.28C233.108 44.152 234.356 43.672 235.724 43.048C236.78 42.592 237.764 42.136 238.796 41.632L240.212 44.992ZM245.876 36.856H249.26V57.28H245.876V36.856ZM242.468 41.224H252.212V44.464H242.468V41.224ZM246.068 42.544L248.06 43.432C247.172 46.888 245.612 51.208 243.764 53.656C243.452 52.648 242.708 51.184 242.18 50.296C243.812 48.376 245.372 45.016 246.068 42.544ZM250.412 34.624L252.308 37.48C249.668 38.416 246.38 38.992 243.524 39.304C243.404 38.536 242.972 37.36 242.612 36.616C245.372 36.208 248.324 35.464 250.412 34.624ZM249.212 44.488C249.812 44.992 251.804 47.128 252.26 47.656L250.268 50.392C249.716 49.12 248.468 46.96 247.724 45.856L249.212 44.488ZM259.22 34.456H262.652V57.256H259.22V34.456ZM251.732 49.864L264.812 47.536L265.34 50.824L252.284 53.2L251.732 49.864ZM253.076 37.744L255.356 35.8C256.604 36.808 258.236 38.296 258.956 39.352L256.508 41.512C255.884 40.456 254.348 38.848 253.076 37.744ZM252.236 44.104L254.468 42.112C255.764 43.12 257.468 44.608 258.236 45.664L255.836 47.896C255.14 46.816 253.532 45.208 252.236 44.104ZM271.004 42.736H281.612V45.736H271.004V42.736ZM266.564 48.088H288.188V51.28H266.564V48.088ZM275.564 46.648H279.14V53.68C279.14 55.384 278.756 56.272 277.46 56.776C276.188 57.256 274.58 57.304 272.612 57.304C272.396 56.32 271.748 54.832 271.22 53.92C272.564 53.992 274.46 53.992 274.94 53.992C275.42 53.992 275.564 53.896 275.564 53.56V46.648ZM280.46 42.736H281.324L282.068 42.568L284.252 44.248C282.596 46.096 280.292 48.088 277.892 49.312C277.484 48.712 276.572 47.776 276.068 47.296C277.82 46.312 279.692 44.536 280.46 43.384V42.736ZM266.756 38.2H287.996V44.368H284.564V41.248H270.02V44.368H266.756V38.2ZM283.076 34.648L286.892 35.728C285.74 37.384 284.516 39.016 283.556 40.072L280.676 39.064C281.564 37.84 282.548 36.04 283.076 34.648ZM268.34 36.016L271.316 34.696C272.132 35.608 273.068 36.856 273.452 37.768L270.284 39.232C269.972 38.344 269.108 37 268.34 36.016ZM274.316 35.488L277.412 34.336C278.156 35.344 278.948 36.736 279.26 37.696L275.948 38.968C275.708 38.032 274.988 36.568 274.316 35.488ZM298.196 35.776C298.028 36.904 297.884 38.368 297.836 39.424C297.716 41.944 297.548 47.128 297.548 49.768C297.548 52.072 298.868 52.792 300.5 52.792C304.22 52.792 306.74 50.608 308.492 47.92L311.132 51.16C309.644 53.464 306.068 56.776 300.476 56.776C296.276 56.776 293.66 54.88 293.66 50.68C293.66 47.656 293.876 41.224 293.876 39.424C293.876 38.128 293.756 36.808 293.516 35.728L298.196 35.776ZM318.26 56.824C316.844 55.096 314.828 53.032 313.172 51.568L316.22 48.952C317.9 50.344 320.3 52.816 321.356 54.16L318.26 56.824Z" fill="white"/>
<path d="M88.181 68.984H91.781V89.288H88.181V68.984ZM82.061 75.56H97.421V78.944H82.061V75.56ZM82.709 87.056H96.989V90.416H82.709V87.056ZM77.789 75.824L81.197 72.416L81.245 72.464V91.232H77.789V75.824ZM80.237 68.504L83.621 69.584C81.941 73.808 79.181 78.344 76.349 81.128C76.013 80.288 75.005 78.368 74.381 77.504C76.709 75.368 78.941 71.936 80.237 68.504ZM110.669 75.464H117.485V78.584H110.669V75.464ZM110.669 81.44H117.485V84.56H110.669V81.44ZM108.869 69.608H119.501V89.456H115.973V72.728H112.229V89.456H108.869V69.608ZM106.829 87.56H120.989V90.68H106.829V87.56ZM101.693 68.504L104.765 69.56C103.733 71.48 102.629 73.616 101.693 74.96L99.365 74.024C100.205 72.536 101.189 70.232 101.693 68.504ZM104.549 71.408L107.477 72.608C105.653 75.392 103.301 78.68 101.429 80.696L99.341 79.64C101.189 77.456 103.325 74 104.549 71.408ZM98.045 74.552L99.653 72.128C100.901 73.208 102.389 74.72 102.989 75.8L101.237 78.536C100.685 77.384 99.245 75.728 98.045 74.552ZM104.069 77.312L106.493 76.256C107.429 77.888 108.341 80 108.629 81.416L106.013 82.616C105.773 81.224 104.933 78.992 104.069 77.312ZM98.045 78.968C100.325 78.896 103.685 78.752 106.949 78.584L106.925 81.32C103.925 81.584 100.757 81.8 98.333 81.968L98.045 78.968ZM104.381 83.48L106.925 82.64C107.525 84.08 108.149 85.928 108.437 87.152L105.749 88.136C105.533 86.888 104.909 84.944 104.381 83.48ZM98.909 82.808L101.765 83.312C101.573 85.616 101.069 88.064 100.421 89.6C99.821 89.216 98.525 88.616 97.805 88.352C98.429 86.96 98.765 84.8 98.909 82.808ZM101.717 80.576H104.789V91.28H101.717V80.576ZM126.077 70.52C126.749 70.592 127.661 70.64 128.189 70.64C129.629 70.64 131.837 70.568 133.013 70.472C133.685 70.424 134.429 70.256 134.909 70.064L137.213 71.864C136.829 72.272 136.493 72.632 136.301 72.968C135.461 74.384 134.189 77.504 133.109 80.024C132.149 82.256 131.093 84.896 130.157 86.432C129.125 88.016 127.877 88.784 126.005 88.784C123.725 88.784 121.997 87.248 121.997 84.56C121.997 80.576 125.813 77.528 131.093 77.528C136.805 77.528 141.773 80.576 144.269 82.232L142.589 86.288C139.565 83.552 135.437 80.792 130.493 80.792C127.253 80.792 125.381 82.496 125.381 83.984C125.381 84.632 125.717 84.944 126.173 84.944C126.605 84.944 126.893 84.704 127.301 84.128C127.997 83.048 128.741 81.152 129.557 79.328C130.349 77.528 131.261 75.248 131.933 73.88C130.973 73.904 129.365 73.952 128.285 74.024C127.805 74.048 126.869 74.144 126.221 74.24L126.077 70.52ZM142.325 76.424C141.965 83.216 140.669 87.776 134.837 90.872L131.717 88.352C137.813 85.712 138.365 81.248 138.533 78.848C138.605 77.792 138.605 76.76 138.509 75.992L142.325 76.424ZM155.237 71.888C158.381 72.272 163.133 72.152 165.821 71.864V75.608C162.677 75.872 158.477 75.896 155.261 75.608L155.237 71.888ZM157.709 82.4C157.541 83.168 157.469 83.696 157.469 84.32C157.469 85.376 158.477 85.784 160.445 85.784C162.581 85.784 164.309 85.592 166.493 85.136L166.565 89.072C164.981 89.36 163.085 89.528 160.253 89.528C156.053 89.528 153.965 87.968 153.965 85.4C153.965 84.368 154.109 83.36 154.397 82.112L157.709 82.4ZM152.045 70.424C151.829 70.976 151.469 72.44 151.373 72.872C151.109 74.12 150.221 79.208 150.221 81.44C150.221 81.512 150.221 81.896 150.245 81.992C150.581 81.32 150.869 80.84 151.181 80.144L152.933 81.536C152.213 83.72 151.469 86.36 151.205 87.704C151.133 88.064 151.061 88.64 151.061 88.856C151.061 89.12 151.061 89.552 151.085 89.936L147.725 90.152C147.245 88.544 146.765 85.52 146.765 82.256C146.765 78.584 147.461 74.576 147.701 72.8C147.797 72.08 147.965 71 147.989 70.088L152.045 70.424ZM184.391 69.464C184.319 69.92 184.223 71.408 184.199 71.84C184.127 73.424 184.175 78.464 184.199 80.384L180.551 79.328C180.551 77.6 180.551 73.088 180.455 71.864C180.359 70.712 180.263 69.824 180.191 69.464H184.391ZM170.351 72.248C174.119 72.272 180.623 72.104 183.239 72.104C185.423 72.104 189.455 72.056 190.895 72.08L190.847 75.512C189.263 75.44 186.671 75.368 183.119 75.368C178.631 75.368 174.071 75.56 170.447 75.728L170.351 72.248ZM183.575 79.424C183.575 83.744 182.183 85.88 179.087 85.88C177.335 85.88 174.839 84.368 174.839 81.272C174.839 78.368 177.167 76.592 179.951 76.592C183.311 76.592 185.111 79.088 185.111 82.184C185.111 85.256 183.119 89.432 177.119 91.064L174.023 87.968C177.935 87.176 181.511 85.856 181.511 81.512C181.511 80.288 180.791 79.64 179.855 79.64C179.111 79.64 178.319 80.096 178.319 81.2C178.319 82.064 179.087 82.664 179.855 82.664C180.791 82.664 181.799 81.848 180.815 78.848L183.575 79.424ZM196.919 70.376C197.663 70.472 198.575 70.52 199.367 70.52C200.663 70.52 205.463 70.448 206.879 70.328C208.031 70.232 208.703 70.136 209.015 70.04L210.815 72.608C210.191 72.992 209.567 73.352 208.967 73.784C207.623 74.696 205.511 76.424 204.191 77.432C204.815 77.312 205.295 77.288 205.871 77.288C209.999 77.288 213.239 79.928 213.239 83.552C213.239 87.296 210.527 90.584 204.311 90.584C200.927 90.584 198.119 89 198.119 86.36C198.119 84.248 200.039 82.28 202.775 82.28C206.111 82.28 208.079 84.488 208.079 87.224L204.671 87.632C204.671 86.072 203.903 85.04 202.799 85.04C202.007 85.04 201.551 85.52 201.551 86C201.551 86.744 202.343 87.272 203.567 87.272C207.599 87.272 209.399 85.832 209.399 83.504C209.399 81.44 207.287 80.144 204.647 80.144C201.143 80.144 198.623 82.256 196.319 85.064L193.679 82.328C195.215 81.128 198.023 78.752 199.439 77.576C200.783 76.472 203.015 74.744 204.167 73.712C202.967 73.736 200.495 73.832 199.199 73.928C198.479 73.976 197.615 74.048 197.039 74.144L196.919 70.376ZM217.463 89V71.12H223.751C227.663 71.12 230.903 72.536 230.903 76.952C230.903 81.2 227.639 83.072 223.847 83.072H221.759V89H217.463ZM221.759 79.688H223.631C225.719 79.688 226.727 78.704 226.727 76.952C226.727 75.152 225.575 74.528 223.511 74.528H221.759V79.688ZM233.46 89V71.12H240.012C243.828 71.12 246.996 72.44 246.996 76.76C246.996 80.96 243.828 82.712 240.012 82.712H237.756V89H233.46ZM237.756 79.328H239.676C241.716 79.328 242.82 78.44 242.82 76.76C242.82 75.08 241.716 74.528 239.676 74.528H237.756V79.328ZM243.108 89L239.244 81.608L242.148 78.8L247.908 89H243.108ZM249.972 89V71.12H254.604L257.436 78.848C257.796 79.88 258.084 81.008 258.42 82.088H258.54C258.9 81.008 259.188 79.88 259.524 78.848L262.26 71.12H266.916V89H263.004V82.88C263.004 81.104 263.34 78.44 263.58 76.688H263.46L261.972 80.96L259.572 87.488H257.22L254.796 80.96L253.356 76.688H253.26C253.476 78.44 253.812 81.104 253.812 82.88V89H249.972Z" fill="url(#paint0_linear_12130_36408)"/>
<defs>
<linearGradient id="paint0_linear_12130_36408" x1="77.5" y1="62" x2="267.5" y2="62" gradientUnits="userSpaceOnUse">
<stop stop-color="#FF746C"/>
<stop offset="0.33" stop-color="#FF5FB4"/>
<stop offset="0.67" stop-color="#CC65DF"/>
<stop offset="1" stop-color="#7076FA"/>
</linearGradient>
</defs>
</svg>
