<svg width="226" height="75" viewBox="0 0 226 75" fill="none" xmlns="http://www.w3.org/2000/svg">
<path d="M194.661 70.824C194.315 70.824 194.141 70.704 194.141 70.464C194.141 70.384 194.181 70.2773 194.261 70.144L214.141 39.424C214.301 39.1573 214.528 39.024 214.821 39.024H219.181C219.501 39.024 219.661 39.144 219.661 39.384C219.661 39.464 219.621 39.5707 219.541 39.704L199.661 70.424C199.501 70.6907 199.275 70.824 198.981 70.824H194.661ZM195.301 56.864C192.901 56.864 191.008 56.064 189.621 54.464C188.261 52.864 187.581 50.624 187.581 47.744C187.581 44.864 188.261 42.624 189.621 41.024C191.008 39.3973 192.901 38.584 195.301 38.584C197.701 38.584 199.581 39.3973 200.941 41.024C202.328 42.624 203.021 44.864 203.021 47.744C203.021 50.624 202.328 52.864 200.941 54.464C199.581 56.064 197.701 56.864 195.301 56.864ZM195.301 52.984C197.248 52.984 198.221 51.2373 198.221 47.744C198.221 44.2507 197.248 42.504 195.301 42.504C193.328 42.504 192.341 44.2507 192.341 47.744C192.341 51.2373 193.328 52.984 195.301 52.984ZM218.101 71.264C215.675 71.264 213.781 70.464 212.421 68.864C211.061 67.2373 210.381 64.984 210.381 62.104C210.381 59.224 211.061 56.984 212.421 55.384C213.781 53.784 215.675 52.984 218.101 52.984C220.501 52.984 222.381 53.784 223.741 55.384C225.101 56.984 225.781 59.224 225.781 62.104C225.781 64.984 225.101 67.2373 223.741 68.864C222.381 70.464 220.501 71.264 218.101 71.264ZM218.101 67.344C220.048 67.344 221.021 65.5973 221.021 62.104C221.021 58.6107 220.048 56.864 218.101 56.864C216.128 56.864 215.141 58.6107 215.141 62.104C215.141 65.5973 216.128 67.344 218.101 67.344Z" fill="url(#paint0_linear_100_14674)"/>
<path d="M154.838 74.448C150.32 74.448 146.272 73.5973 142.694 71.896C139.115 70.1947 136.064 67.76 133.542 64.592C131.078 61.3653 129.171 57.464 127.822 52.888C126.531 48.2533 125.886 43.032 125.886 37.224C125.886 31.416 126.531 26.224 127.822 21.648C129.171 17.0133 131.078 13.112 133.542 9.944C136.064 6.71733 139.115 4.25333 142.694 2.552C146.272 0.850666 150.32 0 154.838 0C159.414 0 163.491 0.850666 167.07 2.552C170.707 4.25333 173.758 6.71733 176.222 9.944C178.686 13.112 180.563 17.0133 181.854 21.648C183.203 26.224 183.878 31.416 183.878 37.224C183.878 43.032 183.203 48.2533 181.854 52.888C180.563 57.464 178.686 61.3653 176.222 64.592C173.758 67.76 170.707 70.1947 167.07 71.896C163.491 73.5973 159.414 74.448 154.838 74.448ZM154.838 56.848C156.422 56.848 157.888 56.496 159.238 55.792C160.587 55.088 161.731 53.944 162.67 52.36C163.608 50.776 164.342 48.752 164.87 46.288C165.398 43.7653 165.662 40.744 165.662 37.224C165.662 33.704 165.398 30.712 164.87 28.248C164.342 25.7253 163.608 23.672 162.67 22.088C161.731 20.504 160.587 19.36 159.238 18.656C157.888 17.952 156.422 17.6 154.838 17.6C153.254 17.6 151.787 17.952 150.438 18.656C149.147 19.36 148.032 20.504 147.094 22.088C146.155 23.672 145.422 25.7253 144.894 28.248C144.366 30.712 144.102 33.704 144.102 37.224C144.102 40.744 144.366 43.7653 144.894 46.288C145.422 48.752 146.155 50.776 147.094 52.36C148.032 53.944 149.147 55.088 150.438 55.792C151.787 56.496 153.254 56.848 154.838 56.848Z" fill="url(#paint1_linear_100_14674)"/>
<path d="M89.9103 74.448C85.3929 74.448 81.3449 73.5973 77.7663 71.896C74.1876 70.1947 71.1369 67.76 68.6143 64.592C66.1502 61.3653 64.2436 57.464 62.8942 52.888C61.6036 48.2533 60.9583 43.032 60.9583 37.224C60.9583 31.416 61.6036 26.224 62.8942 21.648C64.2436 17.0133 66.1502 13.112 68.6143 9.944C71.1369 6.71733 74.1876 4.25333 77.7663 2.552C81.3449 0.850666 85.3929 0 89.9103 0C94.4863 0 98.5636 0.850666 102.142 2.552C105.78 4.25333 108.83 6.71733 111.294 9.944C113.758 13.112 115.636 17.0133 116.926 21.648C118.276 26.224 118.95 31.416 118.95 37.224C118.95 43.032 118.276 48.2533 116.926 52.888C115.636 57.464 113.758 61.3653 111.294 64.592C108.83 67.76 105.78 70.1947 102.142 71.896C98.5636 73.5973 94.4863 74.448 89.9103 74.448ZM89.9103 56.848C91.4943 56.848 92.9609 56.496 94.3103 55.792C95.6596 55.088 96.8036 53.944 97.7422 52.36C98.6809 50.776 99.4143 48.752 99.9423 46.288C100.47 43.7653 100.734 40.744 100.734 37.224C100.734 33.704 100.47 30.712 99.9423 28.248C99.4143 25.7253 98.6809 23.672 97.7422 22.088C96.8036 20.504 95.6596 19.36 94.3103 18.656C92.9609 17.952 91.4943 17.6 89.9103 17.6C88.3263 17.6 86.8596 17.952 85.5103 18.656C84.2196 19.36 83.1049 20.504 82.1663 22.088C81.2276 23.672 80.4943 25.7253 79.9663 28.248C79.4383 30.712 79.1743 33.704 79.1743 37.224C79.1743 40.744 79.4383 43.7653 79.9663 46.288C80.4943 48.752 81.2276 50.776 82.1663 52.36C83.1049 53.944 84.2196 55.088 85.5103 55.792C86.8596 56.496 88.3263 56.848 89.9103 56.848Z" fill="url(#paint2_linear_100_14674)"/>
<path d="M27.851 74.448C23.7443 74.448 19.9897 73.7734 16.587 72.424C13.1843 71.1334 10.2803 69.344 7.87499 67.056C5.46966 64.7094 3.59233 61.9814 2.24299 58.872C0.893661 55.704 0.218994 52.272 0.218994 48.576C0.218994 46.4054 0.453661 44.2347 0.922994 42.064C1.39233 39.8934 2.15499 37.576 3.21099 35.112C4.26699 32.5894 5.61633 29.8614 7.25899 26.928C8.96033 23.9947 11.043 20.6507 13.507 16.896L23.099 2.37602C23.5683 1.73069 24.1843 1.40802 24.947 1.40802H41.755C42.635 1.40802 43.075 1.73069 43.075 2.37602C43.075 2.66935 42.9577 2.96268 42.723 3.25602L27.411 25.52C28.2323 25.4027 29.0537 25.2854 29.875 25.168C30.755 25.0507 31.6057 24.992 32.427 24.992C35.771 24.992 38.851 25.608 41.667 26.84C44.483 28.0134 46.8883 29.6854 48.883 31.856C50.9363 33.968 52.5203 36.52 53.635 39.512C54.7497 42.4454 55.307 45.672 55.307 49.192C55.307 52.9467 54.6323 56.3787 53.283 59.488C51.9923 62.5387 50.1443 65.1787 47.739 67.408C45.3337 69.6374 42.4297 71.368 39.027 72.6C35.683 73.832 31.9577 74.448 27.851 74.448ZM27.675 58.08C30.6083 58.08 32.955 57.2 34.715 55.44C36.5337 53.6214 37.443 51.216 37.443 48.224C37.443 45.2907 36.5337 42.9147 34.715 41.096C32.955 39.2774 30.6083 38.368 27.675 38.368C24.859 38.368 22.5417 39.2774 20.723 41.096C18.9043 42.9147 17.995 45.2907 17.995 48.224C17.995 51.216 18.9043 53.6214 20.723 55.44C22.5417 57.2 24.859 58.08 27.675 58.08Z" fill="url(#paint3_linear_100_14674)"/>
<defs>
<linearGradient id="paint0_linear_100_14674" x1="-3.12494" y1="82.344" x2="226.875" y2="82.0864" gradientUnits="userSpaceOnUse">
<stop stop-color="#FF746C"/>
<stop offset="0.5" stop-color="#FF6A90"/>
<stop offset="1" stop-color="#CC65DF"/>
</linearGradient>
<linearGradient id="paint1_linear_100_14674" x1="-3.12502" y1="82.344" x2="226.875" y2="82.0865" gradientUnits="userSpaceOnUse">
<stop stop-color="#FF746C"/>
<stop offset="0.5" stop-color="#FF6A90"/>
<stop offset="1" stop-color="#CC65DF"/>
</linearGradient>
<linearGradient id="paint2_linear_100_14674" x1="-3.125" y1="82.344" x2="226.875" y2="82.0865" gradientUnits="userSpaceOnUse">
<stop stop-color="#FF746C"/>
<stop offset="0.5" stop-color="#FF6A90"/>
<stop offset="1" stop-color="#CC65DF"/>
</linearGradient>
<linearGradient id="paint3_linear_100_14674" x1="-3.12501" y1="82.344" x2="226.875" y2="82.0865" gradientUnits="userSpaceOnUse">
<stop stop-color="#FF746C"/>
<stop offset="0.5" stop-color="#FF6A90"/>
<stop offset="1" stop-color="#CC65DF"/>
</linearGradient>
</defs>
</svg>
