<svg width="226" height="75" viewBox="0 0 226 75" fill="none" xmlns="http://www.w3.org/2000/svg">
<path d="M194.364 70.824C194.018 70.824 193.844 70.704 193.844 70.464C193.844 70.384 193.884 70.2773 193.964 70.144L213.844 39.424C214.004 39.1573 214.231 39.024 214.524 39.024H218.884C219.204 39.024 219.364 39.144 219.364 39.384C219.364 39.464 219.324 39.5707 219.244 39.704L199.364 70.424C199.204 70.6907 198.978 70.824 198.684 70.824H194.364ZM195.004 56.864C192.604 56.864 190.711 56.064 189.324 54.464C187.964 52.864 187.284 50.624 187.284 47.744C187.284 44.864 187.964 42.624 189.324 41.024C190.711 39.3973 192.604 38.584 195.004 38.584C197.404 38.584 199.284 39.3973 200.644 41.024C202.031 42.624 202.724 44.864 202.724 47.744C202.724 50.624 202.031 52.864 200.644 54.464C199.284 56.064 197.404 56.864 195.004 56.864ZM195.004 52.984C196.951 52.984 197.924 51.2373 197.924 47.744C197.924 44.2507 196.951 42.504 195.004 42.504C193.031 42.504 192.044 44.2507 192.044 47.744C192.044 51.2373 193.031 52.984 195.004 52.984ZM217.804 71.264C215.378 71.264 213.484 70.464 212.124 68.864C210.764 67.2373 210.084 64.984 210.084 62.104C210.084 59.224 210.764 56.984 212.124 55.384C213.484 53.784 215.378 52.984 217.804 52.984C220.204 52.984 222.084 53.784 223.444 55.384C224.804 56.984 225.484 59.224 225.484 62.104C225.484 64.984 224.804 67.2373 223.444 68.864C222.084 70.464 220.204 71.264 217.804 71.264ZM217.804 67.344C219.751 67.344 220.724 65.5973 220.724 62.104C220.724 58.6107 219.751 56.864 217.804 56.864C215.831 56.864 214.844 58.6107 214.844 62.104C214.844 65.5973 215.831 67.344 217.804 67.344Z" fill="url(#paint0_linear_100_14684)"/>
<path d="M154.541 74.448C150.023 74.448 145.975 73.5973 142.397 71.896C138.818 70.1947 135.767 67.76 133.245 64.592C130.781 61.3653 128.874 57.464 127.525 52.888C126.234 48.2533 125.589 43.032 125.589 37.224C125.589 31.416 126.234 26.224 127.525 21.648C128.874 17.0133 130.781 13.112 133.245 9.944C135.767 6.71733 138.818 4.25333 142.397 2.552C145.975 0.850666 150.023 0 154.541 0C159.117 0 163.194 0.850666 166.773 2.552C170.41 4.25333 173.461 6.71733 175.925 9.944C178.389 13.112 180.266 17.0133 181.557 21.648C182.906 26.224 183.581 31.416 183.581 37.224C183.581 43.032 182.906 48.2533 181.557 52.888C180.266 57.464 178.389 61.3653 175.925 64.592C173.461 67.76 170.41 70.1947 166.773 71.896C163.194 73.5973 159.117 74.448 154.541 74.448ZM154.541 56.848C156.125 56.848 157.591 56.496 158.941 55.792C160.29 55.088 161.434 53.944 162.373 52.36C163.311 50.776 164.045 48.752 164.573 46.288C165.101 43.7653 165.365 40.744 165.365 37.224C165.365 33.704 165.101 30.712 164.573 28.248C164.045 25.7253 163.311 23.672 162.373 22.088C161.434 20.504 160.29 19.36 158.941 18.656C157.591 17.952 156.125 17.6 154.541 17.6C152.957 17.6 151.49 17.952 150.141 18.656C148.85 19.36 147.735 20.504 146.797 22.088C145.858 23.672 145.125 25.7253 144.597 28.248C144.069 30.712 143.805 33.704 143.805 37.224C143.805 40.744 144.069 43.7653 144.597 46.288C145.125 48.752 145.858 50.776 146.797 52.36C147.735 53.944 148.85 55.088 150.141 55.792C151.49 56.496 152.957 56.848 154.541 56.848Z" fill="url(#paint1_linear_100_14684)"/>
<path d="M89.6131 74.448C85.0958 74.448 81.0478 73.5973 77.4691 71.896C73.8905 70.1947 70.8398 67.76 68.3171 64.592C65.8531 61.3653 63.9465 57.464 62.5971 52.888C61.3065 48.2533 60.6611 43.032 60.6611 37.224C60.6611 31.416 61.3065 26.224 62.5971 21.648C63.9465 17.0133 65.8531 13.112 68.3171 9.944C70.8398 6.71733 73.8905 4.25333 77.4691 2.552C81.0478 0.850666 85.0958 0 89.6131 0C94.1891 0 98.2665 0.850666 101.845 2.552C105.482 4.25333 108.533 6.71733 110.997 9.944C113.461 13.112 115.338 17.0133 116.629 21.648C117.978 26.224 118.653 31.416 118.653 37.224C118.653 43.032 117.978 48.2533 116.629 52.888C115.338 57.464 113.461 61.3653 110.997 64.592C108.533 67.76 105.482 70.1947 101.845 71.896C98.2665 73.5973 94.1891 74.448 89.6131 74.448ZM89.6131 56.848C91.1971 56.848 92.6638 56.496 94.0131 55.792C95.3625 55.088 96.5065 53.944 97.4451 52.36C98.3838 50.776 99.1171 48.752 99.6451 46.288C100.173 43.7653 100.437 40.744 100.437 37.224C100.437 33.704 100.173 30.712 99.6451 28.248C99.1171 25.7253 98.3838 23.672 97.4451 22.088C96.5065 20.504 95.3625 19.36 94.0131 18.656C92.6638 17.952 91.1971 17.6 89.6131 17.6C88.0291 17.6 86.5625 17.952 85.2131 18.656C83.9225 19.36 82.8078 20.504 81.8691 22.088C80.9305 23.672 80.1971 25.7253 79.6691 28.248C79.1411 30.712 78.8771 33.704 78.8771 37.224C78.8771 40.744 79.1411 43.7653 79.6691 46.288C80.1971 48.752 80.9305 50.776 81.8691 52.36C82.8078 53.944 83.9225 55.088 85.2131 55.792C86.5625 56.496 88.0291 56.848 89.6131 56.848Z" fill="url(#paint2_linear_100_14684)"/>
<path d="M3.60763 73.04C2.61029 73.04 2.11162 72.512 2.11162 71.456V66.968C2.11162 66.3227 2.34629 65.7067 2.81562 65.12L21.1196 44.704C23.525 42.0053 25.5196 39.6587 27.1036 37.664C28.7463 35.6107 30.037 33.792 30.9756 32.208C31.973 30.5653 32.6476 29.0987 32.9996 27.808C33.4103 26.4587 33.6156 25.1387 33.6156 23.848C33.6156 21.736 32.9116 20.0933 31.5036 18.92C30.1543 17.7467 28.3356 17.16 26.0476 17.16C23.9356 17.16 22.0876 17.776 20.5036 19.008C18.9196 20.24 17.629 22.176 16.6316 24.816C16.2796 25.7547 15.6636 26.1067 14.7836 25.872L1.67163 22.264C0.674292 22.088 0.322292 21.472 0.615625 20.416C1.49562 17.248 2.75696 14.4027 4.39963 11.88C6.10096 9.35733 8.09563 7.216 10.3836 5.456C12.6716 3.696 15.2236 2.34667 18.0396 1.408C20.9143 0.469334 23.9943 0 27.2796 0C30.9756 0 34.3196 0.528 37.3116 1.584C40.3623 2.64 42.973 4.136 45.1436 6.072C47.3143 7.94933 48.9863 10.2373 50.1596 12.936C51.3916 15.576 52.0076 18.5387 52.0076 21.824C52.0076 24.3467 51.7143 26.7813 51.1276 29.128C50.541 31.416 49.5143 33.792 48.0476 36.256C46.6396 38.72 44.7036 41.36 42.2396 44.176C39.7756 46.9333 36.6956 50.0427 32.9996 53.504L30.3596 55.968H52.3596C53.357 55.968 53.8556 56.4667 53.8556 57.464V71.456C53.8556 72.512 53.357 73.04 52.3596 73.04H3.60763Z" fill="url(#paint3_linear_100_14684)"/>
<defs>
<linearGradient id="paint0_linear_100_14684" x1="-2.99238" y1="82.344" x2="227.007" y2="82.0864" gradientUnits="userSpaceOnUse">
<stop stop-color="#FF746C"/>
<stop offset="0.5" stop-color="#FF6A90"/>
<stop offset="1" stop-color="#CC65DF"/>
</linearGradient>
<linearGradient id="paint1_linear_100_14684" x1="-2.99244" y1="82.344" x2="227.007" y2="82.0865" gradientUnits="userSpaceOnUse">
<stop stop-color="#FF746C"/>
<stop offset="0.5" stop-color="#FF6A90"/>
<stop offset="1" stop-color="#CC65DF"/>
</linearGradient>
<linearGradient id="paint2_linear_100_14684" x1="-2.99243" y1="82.344" x2="227.007" y2="82.0865" gradientUnits="userSpaceOnUse">
<stop stop-color="#FF746C"/>
<stop offset="0.5" stop-color="#FF6A90"/>
<stop offset="1" stop-color="#CC65DF"/>
</linearGradient>
<linearGradient id="paint3_linear_100_14684" x1="-2.99238" y1="82.344" x2="227.007" y2="82.0865" gradientUnits="userSpaceOnUse">
<stop stop-color="#FF746C"/>
<stop offset="0.5" stop-color="#FF6A90"/>
<stop offset="1" stop-color="#CC65DF"/>
</linearGradient>
</defs>
</svg>
